<?xml version="1.0" encoding="UTF-8" standalone="no"?>
<svg
   xmlns:dc="http://purl.org/dc/elements/1.1/"
   xmlns:cc="http://creativecommons.org/ns#"
   xmlns:rdf="http://www.w3.org/1999/02/22-rdf-syntax-ns#"
   xmlns:svg="http://www.w3.org/2000/svg"
   xmlns="http://www.w3.org/2000/svg"
   id="svg5087"
   version="1.1"
   height="200"
   width="200">
  <metadata
     id="metadata5093">
    <rdf:RDF>
      <cc:Work
         rdf:about="">
        <dc:format>image/svg+xml</dc:format>
        <dc:type
           rdf:resource="http://purl.org/dc/dcmitype/StillImage" />
        <dc:title></dc:title>
      </cc:Work>
    </rdf:RDF>
  </metadata>
  <defs
     id="defs5091">
    <filter
       height="1.7967858"
       y="-0.39839292"
       width="1.1547745"
       x="-0.077387318"
       id="filter7409-9-3-7-9"
       style="color-interpolation-filters:sRGB">
      <feGaussianBlur
         id="feGaussianBlur7411-0-7-7-2"
         stdDeviation="0.2611958" />
    </filter>
    <filter
       height="2.1350901"
       y="-0.567545"
       width="1.3278871"
       x="-0.16394354"
       id="filter7393-2-3-4-9"
       style="color-interpolation-filters:sRGB">
      <feGaussianBlur
         id="feGaussianBlur7395-7-4-4-8"
         stdDeviation="0.48029135" />
    </filter>
    <filter
       height="1.7967858"
       y="-0.39839292"
       width="1.1547745"
       x="-0.077387318"
       id="filter7409-2-2-76"
       style="color-interpolation-filters:sRGB">
      <feGaussianBlur
         id="feGaussianBlur7411-6-9-5"
         stdDeviation="0.2611958" />
    </filter>
    <filter
       height="2.1350901"
       y="-0.567545"
       width="1.3278871"
       x="-0.16394354"
       id="filter7393-7-46-3"
       style="color-interpolation-filters:sRGB">
      <feGaussianBlur
         id="feGaussianBlur7395-70-3-87"
         stdDeviation="0.48029135" />
    </filter>
  </defs>
  <g
     transform="translate(-17.4807,597.93042)"
     id="g9571">
    <ellipse
       style="opacity:0.34200003;fill:#ba6d9a;fill-opacity:0.61797749;stroke:none;stroke-width:0.61334729;stroke-linejoin:round;stroke-miterlimit:4;stroke-dasharray:none;stroke-dashoffset:0;stroke-opacity:1;paint-order:fill markers stroke"
       id="path7580-5-6"
       cx="-93.032806"
       cy="-446.65305"
       rx="1.3055602"
       ry="1.6015646"
       transform="matrix(0.81516351,0.57923091,-0.61485577,0.78863957,0,0)" />
    <ellipse
       style="opacity:0.34200003;fill:#ba6d9a;fill-opacity:0.61797749;stroke:none;stroke-width:0.61334729;stroke-linejoin:round;stroke-miterlimit:4;stroke-dasharray:none;stroke-dashoffset:0;stroke-opacity:1;paint-order:fill markers stroke"
       id="path7580-5-6-8-7"
       cx="-96.061401"
       cy="-439.92404"
       rx="1.3055602"
       ry="1.6015646"
       transform="matrix(0.81516351,0.57923091,-0.61485577,0.78863957,0,0)" />
    <path
       style="opacity:0.95999995;fill:#7b4865;fill-opacity:0.74901961;stroke:none;stroke-width:6.4310174;stroke-linejoin:round;stroke-miterlimit:4;stroke-dasharray:none;stroke-dashoffset:0;stroke-opacity:0.35955057;paint-order:fill markers stroke"
       d="m 97.459413,-472.33215 a 25.936819,12.856944 63.561909 0 0 0.0448,-1.67992 25.936819,12.856944 63.561909 0 0 -0.10847,-2.1212 25.936819,12.856944 63.561909 0 0 -0.26835,-2.22006 25.936819,12.856944 63.561909 0 0 -0.43016,-2.3001 25.936819,12.856944 63.561909 0 0 -0.58326,-2.34998 25.936819,12.856944 63.561909 0 0 -0.733,-2.38416 25.936819,12.856944 63.561909 0 0 -0.87358,-2.3917 25.936819,12.856944 63.561909 0 0 -1.00699,-2.37172 25.936819,12.856944 63.561909 0 0 -1.13052,-2.33269 25.936819,12.856944 63.561909 0 0 -0.86775,-1.61553 25.936819,12.856944 63.561909 0 0 -1.31492,-2.20941 25.936819,12.856944 63.561909 0 0 -1.4026,-2.10976 25.936819,12.856944 63.561909 0 0 -1.47806,-1.98184 25.936819,12.856944 63.561909 0 0 -1.5411,-1.84342 25.936819,12.856944 63.561909 0 0 -1.58655,-1.67988 25.936819,12.856944 63.561909 0 0 -1.61502,-1.50135 25.936819,12.856944 63.561909 0 0 -1.62825,-1.30676 25.936819,12.856944 63.561909 0 0 -1.6256,-1.10369 25.936819,12.856944 63.561909 0 0 -1.60768,-0.88474 25.936819,12.856944 63.561909 0 0 -1.57205,-0.65821 25.936819,12.856944 63.561909 0 0 -1.52182,-0.42609 25.936819,12.856944 63.561909 0 0 -1.45538,-0.18885 25.936819,12.856944 63.561909 0 0 -1.37705,0.0483 25.936819,12.856944 63.561909 0 0 -1.28075,0.28921 25.936819,12.856944 63.561909 0 0 -1.17528,0.52523 25.936819,12.856944 63.561909 0 0 -0.75949,0.50911 25.936819,12.856944 63.561909 0 0 -0.96582,0.91367 25.936819,12.856944 63.561909 0 0 -0.82983,1.12803 25.936819,12.856944 63.561909 0 0 -0.68424,1.33389 25.936819,12.856944 63.561909 0 0 -0.53548,1.5237 25.936819,12.856944 63.561909 0 0 -0.37692,1.70097 25.936819,12.856944 63.561909 0 0 -0.21685,1.86312 25.936819,12.856944 63.561909 0 0 -0.0558,2.00023 25.936819,12.856944 63.561909 0 0 0.1085,2.1212 25.936819,12.856944 63.561909 0 0 0.26837,2.22001 25.936819,12.856944 63.561909 0 0 0.43011,2.30015 25.936819,12.856944 63.561909 0 0 0.58291,2.35372 25.936819,12.856944 63.561909 0 0 0.73157,2.38141 25.936819,12.856944 63.561909 0 0 0.8754,2.39067 25.936819,12.856944 63.561909 0 0 1.00836,2.37447 25.936819,12.856944 63.561909 0 0 1.12872,2.33369 25.936819,12.856944 63.561909 0 0 0.86806,1.61189 25.936819,12.856944 63.561909 0 0 1.31313,2.21042 25.936819,12.856944 63.561909 0 0 1.40441,2.10871 25.936819,12.856944 63.561909 0 0 1.47945,1.98455 25.936819,12.856944 63.561909 0 0 1.53969,1.84077 25.936819,12.856944 63.561909 0 0 1.58477,1.68088 25.936819,12.856944 63.561909 0 0 1.61501,1.50134 25.936819,12.856944 63.561909 0 0 1.62823,1.30675 25.936819,12.856944 63.561909 0 0 1.62739,1.10275 25.936819,12.856944 63.561909 0 0 0.2104,0.11491 z"
       id="path18513-4-1-6" />
    <path
       style="opacity:0.95999995;fill:#e283c5;fill-opacity:0.74719101;stroke:none;stroke-width:6.4310174;stroke-linejoin:round;stroke-miterlimit:4;stroke-dasharray:none;stroke-dashoffset:0;stroke-opacity:0.35955057;paint-order:fill markers stroke"
       d="m 54.105873,-513.07124 c -4.40048,2.52154 -5.16223,9.94613 -1.70984,16.64412 l 13.63101,26.4454 c 3.45241,6.698 9.77407,10.06008 14.17452,7.53857 l 3.09842,-1.77543 a 25.936819,12.856944 63.561909 0 1 -0.21039,-0.11491 25.936819,12.856944 63.561909 0 1 -1.62738,-1.10275 25.936819,12.856944 63.561909 0 1 -1.62827,-1.30676 25.936819,12.856944 63.561909 0 1 -1.615,-1.50135 25.936819,12.856944 63.561909 0 1 -1.58475,-1.68087 25.936819,12.856944 63.561909 0 1 -1.53971,-1.84072 25.936819,12.856944 63.561909 0 1 -1.47942,-1.9846 25.936819,12.856944 63.561909 0 1 -1.40442,-2.10871 25.936819,12.856944 63.561909 0 1 -1.31313,-2.21042 25.936819,12.856944 63.561909 0 1 -0.86808,-1.61183 25.936819,12.856944 63.561909 0 1 -1.12872,-2.33369 25.936819,12.856944 63.561909 0 1 -1.00836,-2.37448 25.936819,12.856944 63.561909 0 1 -0.87541,-2.39072 25.936819,12.856944 63.561909 0 1 -0.73156,-2.38136 25.936819,12.856944 63.561909 0 1 -0.58288,-2.35377 25.936819,12.856944 63.561909 0 1 -0.43014,-2.30009 25.936819,12.856944 63.561909 0 1 -0.26834,-2.22005 25.936819,12.856944 63.561909 0 1 -0.1085,-2.12122 25.936819,12.856944 63.561909 0 1 0.0558,-2.00017 25.936819,12.856944 63.561909 0 1 0.21685,-1.86312 25.936819,12.856944 63.561909 0 1 0.37692,-1.70098 25.936819,12.856944 63.561909 0 1 0.53547,-1.5237 25.936819,12.856944 63.561909 0 1 0.68428,-1.33394 25.936819,12.856944 63.561909 0 1 0.8298,-1.12797 25.936819,12.856944 63.561909 0 1 0.96582,-0.91368 25.936819,12.856944 63.561909 0 1 0.75952,-0.50916 25.936819,12.856944 63.561909 0 1 1.17527,-0.52523 25.936819,12.856944 63.561909 0 1 1.28072,-0.28916 25.936819,12.856944 63.561909 0 1 1.37706,-0.0483 25.936819,12.856944 63.561909 0 1 1.45536,0.18885 25.936819,12.856944 63.561909 0 1 1.52182,0.42608 25.936819,12.856944 63.561909 0 1 1.57207,0.65822 25.936819,12.856944 63.561909 0 1 1.60768,0.88475 25.936819,12.856944 63.561909 0 1 1.62559,1.1037 25.936819,12.856944 63.561909 0 1 1.62827,1.30675 25.936819,12.856944 63.561909 0 1 1.61503,1.5013 25.936819,12.856944 63.561909 0 1 1.58652,1.67986 25.936819,12.856944 63.561909 0 1 1.54112,1.8435 25.936819,12.856944 63.561909 0 1 1.47804,1.98183 25.936819,12.856944 63.561909 0 1 1.40261,2.1097 25.936819,12.856944 63.561909 0 1 1.31495,2.20944 25.936819,12.856944 63.561909 0 1 0.86772,1.6155 25.936819,12.856944 63.561909 0 1 1.13051,2.33269 25.936819,12.856944 63.561909 0 1 1.007,2.37178 25.936819,12.856944 63.561909 0 1 0.87359,2.39166 25.936819,12.856944 63.561909 0 1 0.73299,2.38419 25.936819,12.856944 63.561909 0 1 0.58327,2.34994 25.936819,12.856944 63.561909 0 1 0.43014,2.30016 25.936819,12.856944 63.561909 0 1 0.26837,2.22001 25.936819,12.856944 63.561909 0 1 0.10845,2.12118 25.936819,12.856944 63.561909 0 1 -0.0448,1.67992 l 2.601097,-1.49047 c 4.40047,-2.52155 5.16366,-9.94329 1.71126,-16.64128 l -13.631007,-26.44548 c -3.45242,-6.69801 -9.77545,-10.06284 -14.17592,-7.54129 z"
       id="rect18506-9-2-4" />
    <ellipse
       style="opacity:0.95999995;fill:#ffe8ff;fill-opacity:0.31460679;stroke:none;stroke-width:5.19672346;stroke-linejoin:round;stroke-miterlimit:4;stroke-dasharray:none;stroke-dashoffset:0;stroke-opacity:0.35955057;paint-order:fill markers stroke"
       id="path18515-3-41-6"
       cx="296.80597"
       cy="-372.5228"
       rx="6.5252032"
       ry="10.801928"
       transform="matrix(0.86764976,-0.49717592,0.45815879,0.88887036,0,0)" />
    <path
       style="fill:#ffffff;fill-opacity:1;stroke:none;stroke-width:0.62639958px;stroke-linecap:butt;stroke-linejoin:miter;stroke-opacity:1"
       d="m 72.533803,-507.21296 c 0.26747,0.93327 0.80266,2.80069 1.967122,4.23062 1.164461,1.42993 2.956587,2.42083 4.389595,2.60927 1.433008,0.18845 2.505157,-0.42591 2.80413,-1.29621 0.298974,-0.87029 -0.174888,-1.99696 -0.988346,-2.85005 -0.813458,-0.85308 -1.968372,-1.43452 -3.43164,-1.99358 -1.463268,-0.55906 -3.236692,-1.09649 -4.122502,-1.36494 -0.885809,-0.26844 -0.885829,-0.26839 -0.618359,0.66489 z"
       id="path7327-7-55-5" />
    <path
       style="fill:#ffffff;fill-opacity:1;stroke:none;stroke-width:0.72411031px;stroke-linecap:butt;stroke-linejoin:miter;stroke-opacity:1"
       d="m 69.04491,-484.66211 c 0.412948,1.21549 1.239171,3.64744 2.684241,5.62192 1.445069,1.97448 3.507231,3.48943 5.075411,3.94018 1.568179,0.45076 2.64027,-0.16356 2.84562,-1.21536 0.20535,-1.0518 -0.455645,-2.54153 -1.445859,-3.73734 -0.990214,-1.19581 -2.311441,-2.10003 -3.961767,-3.02207 -1.650326,-0.92204 -3.631541,-1.86305 -4.621027,-2.33302 -0.989486,-0.46997 -0.989566,-0.4698 -0.576619,0.74569 z"
       id="path7327-1-8-4-9" />
    <path
       style="fill:#ffffff;fill-opacity:0.61797749;stroke:none;stroke-width:0.26458332px;stroke-linecap:butt;stroke-linejoin:miter;stroke-opacity:1;filter:url(#filter7393-7-46-3)"
       d="m 12.11527,264.9922 c 1.059498,-0.11273 3.696761,-0.0451 5.240658,0.27044 1.543897,0.31555 1.994713,0.87907 1.837096,1.25097 -0.157617,0.3719 -0.924006,0.55223 -1.645611,0.43947 -0.721605,-0.11275 -1.397451,-0.51826 -2.299066,-0.7775 -0.901615,-0.25923 -2.028521,-0.37192 -2.851384,-0.57481 -0.822863,-0.20288 -1.341192,-0.49585 -0.281693,-0.60857 z"
       id="path7349-5-23-5"
       transform="matrix(2.7319181,-1.5654288,3.2456098,6.2967828,-831.25867,-2166.495)" />
    <path
       style="opacity:0.65100002;fill:#606060;fill-opacity:0.61797749;stroke:none;stroke-width:0.26458332px;stroke-linecap:butt;stroke-linejoin:miter;stroke-opacity:1;filter:url(#filter7409-2-2-76)"
       d="m 8.6783039,280.25224 c 0.6988903,0.0225 2.0964151,0.0676 3.2686811,0.0241 1.172266,-0.0436 2.1638,-0.1819 3.103949,-0.4073 0.940148,-0.2254 1.851715,-0.54106 2.210497,-0.37212 0.358783,0.16895 0.165462,0.82203 -0.561283,1.23956 -0.726745,0.41754 -1.984251,0.59769 -3.385543,0.66533 -1.401291,0.0677 -2.944002,0.0226 -3.8571431,-0.1916 -0.9131414,-0.21419 -1.1955569,-0.59728 -1.4780483,-0.98047 0,0 0,-2e-5 0.6988903,0.0225 z"
       id="path7397-7-8-2"
       transform="matrix(-3.1289006,1.7929054,1.6070692,3.1178626,-323.5756,-1365.0751)" />
    <path
       style="opacity:0.95999995;fill:#7b4865;fill-opacity:0.74901961;stroke:none;stroke-width:6.4310174;stroke-linejoin:round;stroke-miterlimit:4;stroke-dasharray:none;stroke-dashoffset:0;stroke-opacity:0.35955057;paint-order:fill markers stroke"
       d="m 170.53851,-512.771 a 25.936819,12.856944 63.561909 0 0 0.045,-1.67998 25.936819,12.856944 63.561909 0 0 -0.1085,-2.12115 25.936819,12.856944 63.561909 0 0 -0.2683,-2.22006 25.936819,12.856944 63.561909 0 0 -0.4301,-2.3001 25.936819,12.856944 63.561909 0 0 -0.5833,-2.34999 25.936819,12.856944 63.561909 0 0 -0.733,-2.38414 25.936819,12.856944 63.561909 0 0 -0.8736,-2.39172 25.936819,12.856944 63.561909 0 0 -1.007,-2.37172 25.936819,12.856944 63.561909 0 0 -1.1305,-2.33267 25.936819,12.856944 63.561909 0 0 -0.8678,-1.61554 25.936819,12.856944 63.561909 0 0 -1.3149,-2.20941 25.936819,12.856944 63.561909 0 0 -1.4026,-2.10975 25.936819,12.856944 63.561909 0 0 -1.478,-1.98185 25.936819,12.856944 63.561909 0 0 -1.5411,-1.84342 25.936819,12.856944 63.561909 0 0 -1.5866,-1.67989 25.936819,12.856944 63.561909 0 0 -1.615,-1.50134 25.936819,12.856944 63.561909 0 0 -1.6283,-1.30676 25.936819,12.856944 63.561909 0 0 -1.6256,-1.1037 25.936819,12.856944 63.561909 0 0 -1.6076,-0.88474 25.936819,12.856944 63.561909 0 0 -1.57211,-0.65821 25.936819,12.856944 63.561909 0 0 -1.5218,-0.42609 25.936819,12.856944 63.561909 0 0 -1.4554,-0.18885 25.936819,12.856944 63.561909 0 0 -1.377,0.0483 25.936819,12.856944 63.561909 0 0 -1.2808,0.2892 25.936819,12.856944 63.561909 0 0 -1.1753,0.52523 25.936819,12.856944 63.561909 0 0 -0.7594,0.50911 25.936819,12.856944 63.561909 0 0 -0.9659,0.91368 25.936819,12.856944 63.561909 0 0 -0.8298,1.12803 25.936819,12.856944 63.561909 0 0 -0.6842,1.3339 25.936819,12.856944 63.561909 0 0 -0.5355,1.52369 25.936819,12.856944 63.561909 0 0 -0.3769,1.70098 25.936819,12.856944 63.561909 0 0 -0.2169,1.86312 25.936819,12.856944 63.561909 0 0 -0.056,2.00022 25.936819,12.856944 63.561909 0 0 0.1085,2.12116 25.936819,12.856944 63.561909 0 0 0.2684,2.22007 25.936819,12.856944 63.561909 0 0 0.4301,2.30013 25.936819,12.856944 63.561909 0 0 0.5829,2.35372 25.936819,12.856944 63.561909 0 0 0.7316,2.38143 25.936819,12.856944 63.561909 0 0 0.8754,2.39066 25.936819,12.856944 63.561909 0 0 1.0083,2.37447 25.936819,12.856944 63.561909 0 0 1.1288,2.33369 25.936819,12.856944 63.561909 0 0 0.868,1.61188 25.936819,12.856944 63.561909 0 0 1.3132,2.21038 25.936819,12.856944 63.561909 0 0 1.4044,2.10876 25.936819,12.856944 63.561909 0 0 1.4794,1.98455 25.936819,12.856944 63.561909 0 0 1.5397,1.84072 25.936819,12.856944 63.561909 0 0 1.58481,1.68094 25.936819,12.856944 63.561909 0 0 1.615,1.50129 25.936819,12.856944 63.561909 0 0 1.6283,1.30675 25.936819,12.856944 63.561909 0 0 1.6273,1.10274 25.936819,12.856944 63.561909 0 0 0.2105,0.11493 z"
       id="path18513-2-5-5-9" />
    <path
       style="opacity:0.95999995;fill:#e283c5;fill-opacity:0.74719101;stroke:none;stroke-width:6.4310174;stroke-linejoin:round;stroke-miterlimit:4;stroke-dasharray:none;stroke-dashoffset:0;stroke-opacity:0.35955057;paint-order:fill markers stroke"
       d="m 127.185,-553.51011 c -4.4005,2.52155 -5.1622,9.94613 -1.7098,16.64407 l 13.631,26.44547 c 3.4524,6.69794 9.774,10.06006 14.17451,7.53856 l 3.0984,-1.77544 a 25.936819,12.856944 63.561909 0 1 -0.2104,-0.11493 25.936819,12.856944 63.561909 0 1 -1.6274,-1.10274 25.936819,12.856944 63.561909 0 1 -1.6283,-1.30677 25.936819,12.856944 63.561909 0 1 -1.615,-1.50134 25.936819,12.856944 63.561909 0 1 -1.58471,-1.68087 25.936819,12.856944 63.561909 0 1 -1.5398,-1.84072 25.936819,12.856944 63.561909 0 1 -1.4794,-1.98459 25.936819,12.856944 63.561909 0 1 -1.4044,-2.10872 25.936819,12.856944 63.561909 0 1 -1.3131,-2.21042 25.936819,12.856944 63.561909 0 1 -0.8681,-1.61184 25.936819,12.856944 63.561909 0 1 -1.1287,-2.33369 25.936819,12.856944 63.561909 0 1 -1.0084,-2.37447 25.936819,12.856944 63.561909 0 1 -0.8754,-2.39072 25.936819,12.856944 63.561909 0 1 -0.7315,-2.38136 25.936819,12.856944 63.561909 0 1 -0.5829,-2.35376 25.936819,12.856944 63.561909 0 1 -0.4302,-2.3001 25.936819,12.856944 63.561909 0 1 -0.2683,-2.22006 25.936819,12.856944 63.561909 0 1 -0.1085,-2.12121 25.936819,12.856944 63.561909 0 1 0.056,-2.00017 25.936819,12.856944 63.561909 0 1 0.2168,-1.86313 25.936819,12.856944 63.561909 0 1 0.3769,-1.70097 25.936819,12.856944 63.561909 0 1 0.5355,-1.5237 25.936819,12.856944 63.561909 0 1 0.6843,-1.33389 25.936819,12.856944 63.561909 0 1 0.8298,-1.12803 25.936819,12.856944 63.561909 0 1 0.9658,-0.91367 25.936819,12.856944 63.561909 0 1 0.7595,-0.50911 25.936819,12.856944 63.561909 0 1 1.1753,-0.52524 25.936819,12.856944 63.561909 0 1 1.2807,-0.28921 25.936819,12.856944 63.561909 0 1 1.3771,-0.0483 25.936819,12.856944 63.561909 0 1 1.4554,0.18884 25.936819,12.856944 63.561909 0 1 1.5218,0.42609 25.936819,12.856944 63.561909 0 1 1.57201,0.65822 25.936819,12.856944 63.561909 0 1 1.6077,0.88474 25.936819,12.856944 63.561909 0 1 1.6256,1.1037 25.936819,12.856944 63.561909 0 1 1.6283,1.30675 25.936819,12.856944 63.561909 0 1 1.615,1.5013 25.936819,12.856944 63.561909 0 1 1.5865,1.67985 25.936819,12.856944 63.561909 0 1 1.5412,1.84351 25.936819,12.856944 63.561909 0 1 1.478,1.98183 25.936819,12.856944 63.561909 0 1 1.4026,2.10976 25.936819,12.856944 63.561909 0 1 1.3149,2.20936 25.936819,12.856944 63.561909 0 1 0.8678,1.61558 25.936819,12.856944 63.561909 0 1 1.1305,2.33264 25.936819,12.856944 63.561909 0 1 1.007,2.37177 25.936819,12.856944 63.561909 0 1 0.8736,2.39171 25.936819,12.856944 63.561909 0 1 0.7329,2.38415 25.936819,12.856944 63.561909 0 1 0.5833,2.34993 25.936819,12.856944 63.561909 0 1 0.4302,2.30015 25.936819,12.856944 63.561909 0 1 0.2683,2.22005 25.936819,12.856944 63.561909 0 1 0.1085,2.12116 25.936819,12.856944 63.561909 0 1 -0.045,1.67991 l 2.6011,-1.49046 c 4.4005,-2.5215 5.1636,-9.94334 1.7113,-16.64128 l -13.631,-26.44541 c -3.4524,-6.698 -9.7755,-10.06284 -14.17591,-7.54129 z"
       id="rect18506-6-5-1-2" />
    <ellipse
       style="opacity:0.95999995;fill:#ffe8ff;fill-opacity:0.31460679;stroke:none;stroke-width:5.19672346;stroke-linejoin:round;stroke-miterlimit:4;stroke-dasharray:none;stroke-dashoffset:0;stroke-opacity:0.35955057;paint-order:fill markers stroke"
       id="path18515-8-3-86-9"
       cx="375.37518"
       cy="-371.27512"
       rx="6.5252032"
       ry="10.801928"
       transform="matrix(0.86764976,-0.49717592,0.45815879,0.88887036,0,0)" />
    <path
       style="fill:#ffffff;fill-opacity:1;stroke:none;stroke-width:0.62639958px;stroke-linecap:butt;stroke-linejoin:miter;stroke-opacity:1"
       d="m 140.66517,-535.68534 c 0.62495,-1.2125 2.36085,-1.55043 3.48244,-2.81069 1.12159,-1.26025 1.62588,-3.43524 1.08088,-4.59357 -0.545,-1.15832 -2.139,-1.29595 -3.32452,-0.96272 -1.18552,0.33323 -1.96369,1.13849 -2.2875,2.46582 -0.32382,1.32733 -0.19242,3.17502 0.11605,5.14603 0.30847,1.97101 0.79401,4.0628 0.79401,4.0628 0,0 -0.48632,-2.09516 0.13864,-3.30767 z"
       id="path7327-2-2-0-0" />
    <path
       style="fill:#ffffff;fill-opacity:1;stroke:none;stroke-width:0.72411031px;stroke-linecap:butt;stroke-linejoin:miter;stroke-opacity:1"
       d="m 161.55371,-535.15531 c 0,0 0,0 -0.72592,1.12899 -0.72591,1.12899 -2.17602,3.38429 -1.95536,6.25702 0.22066,2.87273 2.11451,6.35869 3.63295,7.06794 1.51844,0.70926 2.66181,-1.35779 2.81995,-3.10273 0.15814,-1.74494 -0.66911,-3.17034 -1.46195,-5.00933 -0.79285,-1.83898 -1.55145,-4.09113 -1.93051,-5.21647 -0.37906,-1.12535 -0.37916,-1.12542 -0.37916,-1.12542 z"
       id="path7327-1-3-1-54-6" />
    <path
       style="fill:#ffffff;fill-opacity:0.61797749;stroke:none;stroke-width:0.26458332px;stroke-linecap:butt;stroke-linejoin:miter;stroke-opacity:1;filter:url(#filter7393-2-3-4-9)"
       d="m 12.11527,264.9922 c 1.059498,-0.11273 3.696761,-0.0451 5.240658,0.27044 1.543897,0.31555 1.994713,0.87907 1.837096,1.25097 -0.157617,0.3719 -0.924006,0.55223 -1.645611,0.43947 -0.721605,-0.11275 -1.397451,-0.51826 -2.299066,-0.7775 -0.901615,-0.25923 -2.028521,-0.37192 -2.851384,-0.57481 -0.822863,-0.20288 -1.341192,-0.49585 -0.281693,-0.60857 z"
       id="path7349-9-8-6-0"
       transform="matrix(-3.6877278,2.1131216,3.2456098,6.2967828,-669.94419,-2259.2315)" />
    <path
       style="opacity:0.65100002;fill:#606060;fill-opacity:0.61797749;stroke:none;stroke-width:0.26458332px;stroke-linecap:butt;stroke-linejoin:miter;stroke-opacity:1;filter:url(#filter7409-9-3-7-9)"
       d="m 8.6783039,280.25224 c 0.6988903,0.0225 2.0964151,0.0676 3.2686811,0.0241 1.172266,-0.0436 2.1638,-0.1819 3.103949,-0.4073 0.940148,-0.2254 1.851715,-0.54106 2.210497,-0.37212 0.358783,0.16895 0.165462,0.82203 -0.561283,1.23956 -0.726745,0.41754 -1.984251,0.59769 -3.385543,0.66533 -1.401291,0.0677 -2.944002,0.0226 -3.8571431,-0.1916 -0.9131414,-0.21419 -1.1955569,-0.59728 -1.4780483,-0.98047 0,0 0,-2e-5 0.6988903,0.0225 z"
       id="path7397-5-4-7-2"
       transform="matrix(3.0934807,-1.7726094,1.1545404,2.2399151,-198.21212,-1116.8793)" />
    <ellipse
       style="opacity:0.34200003;fill:#ba6d9a;fill-opacity:0.61797749;stroke:none;stroke-width:0.61334729;stroke-linejoin:round;stroke-miterlimit:4;stroke-dasharray:none;stroke-dashoffset:0;stroke-opacity:1;paint-order:fill markers stroke"
       id="path7580-5-6-6-5-0"
       cx="276.7995"
       cy="-343.86679"
       rx="1.3055602"
       ry="1.6015646"
       transform="matrix(0.86764976,-0.49717592,0.45815879,0.88887036,0,0)" />
    <ellipse
       style="opacity:0.34200003;fill:#ba6d9a;fill-opacity:0.61797749;stroke:none;stroke-width:0.61334729;stroke-linejoin:round;stroke-miterlimit:4;stroke-dasharray:none;stroke-dashoffset:0;stroke-opacity:1;paint-order:fill markers stroke"
       id="path7580-5-6-8-4-5-7"
       cx="281.31702"
       cy="-338.83426"
       rx="1.3055602"
       ry="1.6015646"
       transform="matrix(0.86764976,-0.49717592,0.45815879,0.88887036,0,0)" />
    <ellipse
       style="opacity:0.34200003;fill:#ba6d9a;fill-opacity:0.61797749;stroke:none;stroke-width:0.61334729;stroke-linejoin:round;stroke-miterlimit:4;stroke-dasharray:none;stroke-dashoffset:0;stroke-opacity:1;paint-order:fill markers stroke"
       id="path7580-5-6-8-7-6-2-7"
       cx="273.77094"
       cy="-337.13779"
       rx="1.3055602"
       ry="1.6015646"
       transform="matrix(0.86764976,-0.49717592,0.45815879,0.88887036,0,0)" />
    <ellipse
       style="opacity:0.34200003;fill:#ba6d9a;fill-opacity:0.61797749;stroke:none;stroke-width:0.61334729;stroke-linejoin:round;stroke-miterlimit:4;stroke-dasharray:none;stroke-dashoffset:0;stroke-opacity:1;paint-order:fill markers stroke"
       id="path7580-5-6-87-4-76-8"
       cx="399.17429"
       cy="-339.96201"
       rx="1.3055602"
       ry="1.6015646"
       transform="matrix(0.86764976,-0.49717592,0.45815879,0.88887036,0,0)" />
    <ellipse
       style="opacity:0.34200003;fill:#ba6d9a;fill-opacity:0.61797749;stroke:none;stroke-width:0.61334729;stroke-linejoin:round;stroke-miterlimit:4;stroke-dasharray:none;stroke-dashoffset:0;stroke-opacity:1;paint-order:fill markers stroke"
       id="path7580-5-6-8-8-2-7-1"
       cx="403.6918"
       cy="-334.92941"
       rx="1.3055602"
       ry="1.6015646"
       transform="matrix(0.86764976,-0.49717592,0.45815879,0.88887036,0,0)" />
    <ellipse
       style="opacity:0.34200003;fill:#ba6d9a;fill-opacity:0.61797749;stroke:none;stroke-width:0.61334729;stroke-linejoin:round;stroke-miterlimit:4;stroke-dasharray:none;stroke-dashoffset:0;stroke-opacity:1;paint-order:fill markers stroke"
       id="path7580-5-6-8-7-1-5-7-3"
       cx="396.14572"
       cy="-333.233"
       rx="1.3055602"
       ry="1.6015646"
       transform="matrix(0.86764976,-0.49717592,0.45815879,0.88887036,0,0)" />
  </g>
</svg>
