<?xml version="1.0" encoding="UTF-8" standalone="no"?>
<!-- Created with Inkscape (http://www.inkscape.org/) -->

<svg
   xmlns:dc="http://purl.org/dc/elements/1.1/"
   xmlns:cc="http://creativecommons.org/ns#"
   xmlns:rdf="http://www.w3.org/1999/02/22-rdf-syntax-ns#"
   xmlns:svg="http://www.w3.org/2000/svg"
   xmlns="http://www.w3.org/2000/svg"
   xmlns:xlink="http://www.w3.org/1999/xlink"
   xmlns:sodipodi="http://sodipodi.sourceforge.net/DTD/sodipodi-0.dtd"
   xmlns:inkscape="http://www.inkscape.org/namespaces/inkscape"
   width="200"
   height="200"
   viewBox="0 0 52.916665 52.916668"
   version="1.1"
   id="svg17836"
   inkscape:version="0.92.3 (2405546, 2018-03-11)"
   sodipodi:docname="face2.svg">
  <defs
     id="defs17830">
    <linearGradient
       id="linearGradient1176"
       inkscape:collect="always">
      <stop
         id="stop1172"
         offset="0"
         style="stop-color:#9b6379;stop-opacity:1;" />
      <stop
         id="stop1174"
         offset="1"
         style="stop-color:#f19abc;stop-opacity:0" />
    </linearGradient>
    <linearGradient
       inkscape:collect="always"
       id="linearGradient1160">
      <stop
         style="stop-color:#9b6379;stop-opacity:1;"
         offset="0"
         id="stop1156" />
      <stop
         style="stop-color:#9b6379;stop-opacity:0;"
         offset="1"
         id="stop1158" />
    </linearGradient>
    <inkscape:path-effect
       effect="bspline"
       id="path-effect9937"
       is_visible="true"
       weight="33.333333"
       steps="2"
       helper_size="0"
       apply_no_weight="true"
       apply_with_weight="true"
       only_selected="false" />
    <inkscape:path-effect
       effect="bspline"
       id="path-effect9793"
       is_visible="true"
       weight="33.333333"
       steps="2"
       helper_size="0"
       apply_no_weight="true"
       apply_with_weight="true"
       only_selected="false" />
    <inkscape:path-effect
       effect="bspline"
       id="path-effect9765"
       is_visible="true"
       weight="33.333333"
       steps="2"
       helper_size="0"
       apply_no_weight="true"
       apply_with_weight="true"
       only_selected="false" />
    <inkscape:path-effect
       effect="bspline"
       id="path-effect9679"
       is_visible="true"
       weight="33.333333"
       steps="2"
       helper_size="0"
       apply_no_weight="true"
       apply_with_weight="true"
       only_selected="false" />
    <inkscape:path-effect
       effect="bspline"
       id="path-effect9655"
       is_visible="true"
       weight="33.333333"
       steps="2"
       helper_size="0"
       apply_no_weight="true"
       apply_with_weight="true"
       only_selected="false" />
    <inkscape:path-effect
       effect="bspline"
       id="path-effect7893"
       is_visible="true"
       weight="33.333333"
       steps="2"
       helper_size="0"
       apply_no_weight="true"
       apply_with_weight="true"
       only_selected="false" />
    <inkscape:path-effect
       effect="bspline"
       id="path-effect7578"
       is_visible="true"
       weight="33.333333"
       steps="2"
       helper_size="0"
       apply_no_weight="true"
       apply_with_weight="true"
       only_selected="false" />
    <inkscape:path-effect
       effect="bspline"
       id="path-effect7574"
       is_visible="true"
       weight="33.333333"
       steps="2"
       helper_size="0"
       apply_no_weight="true"
       apply_with_weight="true"
       only_selected="false" />
    <inkscape:path-effect
       effect="bspline"
       id="path-effect7500"
       is_visible="true"
       weight="33.333333"
       steps="2"
       helper_size="0"
       apply_no_weight="true"
       apply_with_weight="true"
       only_selected="false" />
    <inkscape:path-effect
       effect="bspline"
       id="path-effect7399"
       is_visible="true"
       weight="33.333333"
       steps="2"
       helper_size="0"
       apply_no_weight="true"
       apply_with_weight="true"
       only_selected="false" />
    <inkscape:path-effect
       effect="bspline"
       id="path-effect7351"
       is_visible="true"
       weight="33.333333"
       steps="2"
       helper_size="0"
       apply_no_weight="true"
       apply_with_weight="true"
       only_selected="false" />
    <inkscape:path-effect
       effect="bspline"
       id="path-effect7329"
       is_visible="true"
       weight="33.333333"
       steps="2"
       helper_size="0"
       apply_no_weight="true"
       apply_with_weight="true"
       only_selected="false" />
    <marker
       inkscape:stockid="Arrow1Lstart"
       orient="auto"
       refY="0.0"
       refX="0.0"
       id="marker7163"
       style="overflow:visible"
       inkscape:isstock="true">
      <path
         id="path7161"
         d="M 0.0,0.0 L 5.0,-5.0 L -12.5,0.0 L 5.0,5.0 L 0.0,0.0 z "
         style="fill-rule:evenodd;stroke:none;stroke-width:1pt;stroke-opacity:0.35955057;fill:#d290b3;fill-opacity:0.74719101"
         transform="scale(0.8) translate(12.5,0)" />
    </marker>
    <marker
       inkscape:stockid="Arrow1Lstart"
       orient="auto"
       refY="0.0"
       refX="0.0"
       id="Arrow1Lstart"
       style="overflow:visible"
       inkscape:isstock="true">
      <path
         id="path6885"
         d="M 0.0,0.0 L 5.0,-5.0 L -12.5,0.0 L 5.0,5.0 L 0.0,0.0 z "
         style="fill-rule:evenodd;stroke:none;stroke-width:1pt;stroke-opacity:0.35955057;fill:#d290b3;fill-opacity:0.74719101"
         transform="scale(0.8) translate(12.5,0)" />
    </marker>
    <inkscape:path-effect
       effect="bspline"
       id="path-effect6828"
       is_visible="true"
       weight="33.333333"
       steps="2"
       helper_size="0"
       apply_no_weight="true"
       apply_with_weight="true"
       only_selected="false" />
    <linearGradient
       inkscape:collect="always"
       id="linearGradient6558">
      <stop
         style="stop-color:#ffffff;stop-opacity:0"
         offset="0"
         id="stop6554" />
      <stop
         id="stop6562"
         offset="0.71541387"
         style="stop-color:#ffffee;stop-opacity:0.86666662" />
      <stop
         style="stop-color:#ffffff;stop-opacity:0;"
         offset="1"
         id="stop6556" />
    </linearGradient>
    <inkscape:path-effect
       effect="bspline"
       id="path-effect6440"
       is_visible="true"
       weight="33.333333"
       steps="2"
       helper_size="0"
       apply_no_weight="true"
       apply_with_weight="true"
       only_selected="false" />
    <inkscape:path-effect
       effect="bspline"
       id="path-effect6320"
       is_visible="true"
       weight="33.333333"
       steps="2"
       helper_size="0"
       apply_no_weight="true"
       apply_with_weight="true"
       only_selected="false" />
    <inkscape:perspective
       sodipodi:type="inkscape:persp3d"
       inkscape:vp_x="-42.513524 : 9.3486602 : 1"
       inkscape:vp_y="0 : 5782.2791 : 0"
       inkscape:vp_z="149.0857 : 9.3486602 : 1"
       inkscape:persp3d-origin="53.286092 : -41.647831 : 1"
       id="perspective18381" />
    <inkscape:path-effect
       effect="bspline"
       id="path-effect6320-5"
       is_visible="true"
       weight="33.333333"
       steps="2"
       helper_size="0"
       apply_no_weight="true"
       apply_with_weight="true"
       only_selected="false" />
    <linearGradient
       inkscape:collect="always"
       xlink:href="#linearGradient6558"
       id="linearGradient6560"
       x1="12.870377"
       y1="260.96957"
       x2="37.275013"
       y2="242.31999"
       gradientUnits="userSpaceOnUse"
       gradientTransform="matrix(5.8701109,-2.0661009,0.65713671,18.456193,-238.70555,-4614.4652)" />
    <inkscape:path-effect
       effect="bspline"
       id="path-effect7329-8"
       is_visible="true"
       weight="33.333333"
       steps="2"
       helper_size="0"
       apply_no_weight="true"
       apply_with_weight="true"
       only_selected="false" />
    <filter
       inkscape:collect="always"
       style="color-interpolation-filters:sRGB"
       id="filter7409"
       x="-0.077387318"
       width="1.1547746"
       y="-0.39839291"
       height="1.7967858">
      <feGaussianBlur
         inkscape:collect="always"
         stdDeviation="0.2611958"
         id="feGaussianBlur7411" />
    </filter>
    <filter
       inkscape:collect="always"
       style="color-interpolation-filters:sRGB"
       id="filter7409-9"
       x="-0.077387318"
       width="1.1547745"
       y="-0.39839292"
       height="1.7967858">
      <feGaussianBlur
         inkscape:collect="always"
         stdDeviation="0.2611958"
         id="feGaussianBlur7411-0" />
    </filter>
    <inkscape:path-effect
       effect="bspline"
       id="path-effect7399-1"
       is_visible="true"
       weight="33.333333"
       steps="2"
       helper_size="0"
       apply_no_weight="true"
       apply_with_weight="true"
       only_selected="false" />
    <inkscape:path-effect
       effect="bspline"
       id="path-effect7351-4"
       is_visible="true"
       weight="33.333333"
       steps="2"
       helper_size="0"
       apply_no_weight="true"
       apply_with_weight="true"
       only_selected="false" />
    <inkscape:path-effect
       effect="bspline"
       id="path-effect7329-8-9"
       is_visible="true"
       weight="33.333333"
       steps="2"
       helper_size="0"
       apply_no_weight="true"
       apply_with_weight="true"
       only_selected="false" />
    <inkscape:path-effect
       effect="bspline"
       id="path-effect7329-1"
       is_visible="true"
       weight="33.333333"
       steps="2"
       helper_size="0"
       apply_no_weight="true"
       apply_with_weight="true"
       only_selected="false" />
    <inkscape:path-effect
       effect="bspline"
       id="path-effect7500-8"
       is_visible="true"
       weight="33.333333"
       steps="2"
       helper_size="0"
       apply_no_weight="true"
       apply_with_weight="true"
       only_selected="false" />
    <inkscape:path-effect
       effect="bspline"
       id="path-effect7500-8-0"
       is_visible="true"
       weight="33.333333"
       steps="2"
       helper_size="0"
       apply_no_weight="true"
       apply_with_weight="true"
       only_selected="false" />
    <inkscape:path-effect
       effect="bspline"
       id="path-effect7500-9"
       is_visible="true"
       weight="33.333333"
       steps="2"
       helper_size="0"
       apply_no_weight="true"
       apply_with_weight="true"
       only_selected="false" />
    <inkscape:path-effect
       effect="bspline"
       id="path-effect7500-9-9"
       is_visible="true"
       weight="33.333333"
       steps="2"
       helper_size="0"
       apply_no_weight="true"
       apply_with_weight="true"
       only_selected="false" />
    <inkscape:path-effect
       effect="bspline"
       id="path-effect7500-9-4"
       is_visible="true"
       weight="33.333333"
       steps="2"
       helper_size="0"
       apply_no_weight="true"
       apply_with_weight="true"
       only_selected="false" />
    <inkscape:path-effect
       effect="bspline"
       id="path-effect7500-9-4-4"
       is_visible="true"
       weight="33.333333"
       steps="2"
       helper_size="0"
       apply_no_weight="true"
       apply_with_weight="true"
       only_selected="false" />
    <inkscape:path-effect
       effect="bspline"
       id="path-effect7500-9-4-40"
       is_visible="true"
       weight="33.333333"
       steps="2"
       helper_size="0"
       apply_no_weight="true"
       apply_with_weight="true"
       only_selected="false" />
    <inkscape:path-effect
       effect="bspline"
       id="path-effect7500-2"
       is_visible="true"
       weight="33.333333"
       steps="2"
       helper_size="0"
       apply_no_weight="true"
       apply_with_weight="true"
       only_selected="false" />
    <inkscape:path-effect
       effect="bspline"
       id="path-effect7574-9"
       is_visible="true"
       weight="33.333333"
       steps="2"
       helper_size="0"
       apply_no_weight="true"
       apply_with_weight="true"
       only_selected="false" />
    <inkscape:path-effect
       effect="bspline"
       id="path-effect9679-3"
       is_visible="true"
       weight="33.333333"
       steps="2"
       helper_size="0"
       apply_no_weight="true"
       apply_with_weight="true"
       only_selected="false" />
    <inkscape:path-effect
       effect="bspline"
       id="path-effect9793-2"
       is_visible="true"
       weight="33.333333"
       steps="2"
       helper_size="0"
       apply_no_weight="true"
       apply_with_weight="true"
       only_selected="false" />
    <inkscape:path-effect
       effect="bspline"
       id="path-effect7351-4-8"
       is_visible="true"
       weight="33.333333"
       steps="2"
       helper_size="0"
       apply_no_weight="true"
       apply_with_weight="true"
       only_selected="false" />
    <linearGradient
       inkscape:collect="always"
       xlink:href="#linearGradient1160"
       id="linearGradient1162"
       x1="23.255424"
       y1="20.075659"
       x2="24.309242"
       y2="25.33638"
       gradientUnits="userSpaceOnUse"
       gradientTransform="matrix(0.84471362,0,0,0.83819959,4.5648097,5.2695176)" />
    <linearGradient
       inkscape:collect="always"
       xlink:href="#linearGradient1176"
       id="linearGradient1170"
       x1="35.811478"
       y1="21.617689"
       x2="36.968479"
       y2="26.465805"
       gradientUnits="userSpaceOnUse"
       gradientTransform="matrix(0.84471362,0,0,0.83819959,4.5648097,5.2695176)" />
    <filter
       inkscape:collect="always"
       style="color-interpolation-filters:sRGB"
       id="filter1346"
       x="-0.0048681644"
       width="1.0097363"
       y="-0.0047356974"
       height="1.0094714">
      <feGaussianBlur
         inkscape:collect="always"
         stdDeviation="0.089760735"
         id="feGaussianBlur1348" />
    </filter>
  </defs>
  <sodipodi:namedview
     id="base"
     pagecolor="#000000"
     bordercolor="#666666"
     borderopacity="1.0"
     inkscape:pageopacity="0"
     inkscape:pageshadow="2"
     inkscape:zoom="2.565"
     inkscape:cx="100"
     inkscape:cy="58.397331"
     inkscape:document-units="px"
     inkscape:current-layer="layer3"
     showgrid="false"
     units="px"
     inkscape:window-width="1169"
     inkscape:window-height="1008"
     inkscape:window-x="737"
     inkscape:window-y="0"
     inkscape:window-maximized="0" />
  <metadata
     id="metadata17833">
    <rdf:RDF>
      <cc:Work
         rdf:about="">
        <dc:format>image/svg+xml</dc:format>
        <dc:type
           rdf:resource="http://purl.org/dc/dcmitype/StillImage" />
        <dc:title></dc:title>
      </cc:Work>
    </rdf:RDF>
  </metadata>
  <g
     inkscape:label="Layer 1"
     inkscape:groupmode="layer"
     id="layer1"
     transform="translate(0,-244.08332)" />
  <g
     inkscape:groupmode="layer"
     id="layer4"
     inkscape:label="Layer 4">
    <rect
       style="opacity:0.67600002;fill:#5988dd;fill-opacity:1;stroke:#f19abc;stroke-width:0.26458332;stroke-linejoin:round;stroke-miterlimit:4;stroke-dasharray:none;stroke-dashoffset:0;stroke-opacity:0;paint-order:fill markers stroke;filter:url(#filter1346)"
       id="rect1178"
       width="44.251949"
       height="45.489765"
       x="4.0094948"
       y="2.5385556"
       ry="13.136024"
       transform="matrix(0.53856069,0.38379176,-0.36473105,0.5023798,21.332618,3.5032493)" />
  </g>
  <g
     inkscape:groupmode="layer"
     id="layer2"
     inkscape:label="Layer 2">
    <rect
       transform="matrix(0.9720268,0.23486996,-0.24812386,0.96872832,0,0)"
       style="opacity:0.95;fill:#ffa9d0;fill-opacity:0.71910113;stroke:none;stroke-width:0.33241218;stroke-linejoin:round;stroke-miterlimit:4;stroke-dasharray:none;stroke-dashoffset:0;stroke-opacity:1;paint-order:fill markers stroke"
       id="rect1035"
       width="28.863846"
       height="27.010328"
       x="17.653488"
       y="5.861969"
       ry="6.864203" />
  </g>
  <g
     inkscape:groupmode="layer"
     id="layer3"
     inkscape:label="Layer 3">
    <rect
       transform="matrix(0.99919399,0.04014176,-0.03982935,0.9992065,0,0)"
       style="opacity:0.97000002;fill:#ffa8cb;fill-opacity:1;stroke:#000000;stroke-width:0.66790122;stroke-linejoin:round;stroke-miterlimit:4;stroke-dasharray:8.01481433, 0.66790119;stroke-dashoffset:0;stroke-opacity:0.74157302;paint-order:fill markers stroke"
       id="rect1033"
       width="22.042353"
       height="20.301229"
       x="17.265018"
       y="15.872646"
       ry="4.3354425"
       rx="4.0781817" />
    <path
       style="opacity:0.95999995;fill:#7b4865;fill-opacity:0.74901961;stroke:#ffffff;stroke-width:0.35481504;stroke-linejoin:round;stroke-miterlimit:4;stroke-dasharray:4.25778082, 4.25778082;stroke-dashoffset:0;stroke-opacity:1;paint-order:fill markers stroke"
       d="m 22.890807,30.807225 a 1.9858525,3.862935 1.7219126 0 0 0.132233,-0.208113 1.9858525,3.862935 1.7219126 0 0 0.144754,-0.276051 1.9858525,3.862935 1.7219126 0 0 0.130665,-0.301384 1.9858525,3.862935 1.7219126 0 0 0.114916,-0.324489 1.9858525,3.862935 1.7219126 0 0 0.09805,-0.34309 1.9858525,3.862935 1.7219126 0 0 0.08048,-0.35946 1.9858525,3.862935 1.7219126 0 0 0.06213,-0.371718 1.9858525,3.862935 1.7219126 0 0 0.04268,-0.379938 1.9858525,3.862935 1.7219126 0 0 0.02311,-0.384959 1.9858525,3.862935 1.7219126 0 0 0.0046,-0.273436 1.9858525,3.862935 1.7219126 0 0 -0.01096,-0.384266 1.9858525,3.862935 1.7219126 0 0 -0.03024,-0.378765 1.9858525,3.862935 1.7219126 0 0 -0.05001,-0.368714 1.9858525,3.862935 1.7219126 0 0 -0.06889,-0.356346 1.9858525,3.862935 1.7219126 0 0 -0.08728,-0.339395 1.9858525,3.862935 1.7219126 0 0 -0.104539,-0.31918 1.9858525,3.862935 1.7219126 0 0 -0.120941,-0.295723 1.9858525,3.862935 1.7219126 0 0 -0.13583,-0.269916 1.9858525,3.862935 1.7219126 0 0 -0.149878,-0.240881 1.9858525,3.862935 1.7219126 0 0 -0.162097,-0.209471 1.9858525,3.862935 1.7219126 0 0 -0.172791,-0.176163 1.9858525,3.862935 1.7219126 0 0 -0.181639,-0.140933 1.9858525,3.862935 1.7219126 0 0 -0.188933,-0.104741 1.9858525,3.862935 1.7219126 0 0 -0.194065,-0.06662 1.9858525,3.862935 1.7219126 0 0 -0.197606,-0.02837 1.9858525,3.862935 1.7219126 0 0 -0.14045,0.0029 1.9858525,3.862935 1.7219126 0 0 -0.198599,0.03743 1.9858525,3.862935 1.7219126 0 0 -0.196405,0.07537 1.9858525,3.862935 1.7219126 0 0 -0.19229,0.11303 1.9858525,3.862935 1.7219126 0 0 -0.186523,0.148934 1.9858525,3.862935 1.7219126 0 0 -0.178502,0.184027 1.9858525,3.862935 1.7219126 0 0 -0.169148,0.217352 1.9858525,3.862935 1.7219126 0 0 -0.157777,0.247579 1.9858525,3.862935 1.7219126 0 0 -0.144754,0.276058 1.9858525,3.862935 1.7219126 0 0 -0.130665,0.301373 1.9858525,3.862935 1.7219126 0 0 -0.114915,0.324493 1.9858525,3.862935 1.7219126 0 0 -0.09838,0.343543 1.9858525,3.862935 1.7219126 0 0 -0.08045,0.35899 1.9858525,3.862935 1.7219126 0 0 -0.06181,0.37174 1.9858525,3.862935 1.7219126 0 0 -0.04268,0.380395 1.9858525,3.862935 1.7219126 0 0 -0.02343,0.384943 1.9858525,3.862935 1.7219126 0 0 -0.0042,0.272994 1.9858525,3.862935 1.7219126 0 0 0.01065,0.384249 1.9858525,3.862935 1.7219126 0 0 0.03056,0.37878 1.9858525,3.862935 1.7219126 0 0 0.04999,0.369171 1.9858525,3.862935 1.7219126 0 0 0.0689,0.355889 1.9858525,3.862935 1.7219126 0 0 0.08696,0.339384 1.9858525,3.862935 1.7219126 0 0 0.104539,0.319179 1.9858525,3.862935 1.7219126 0 0 0.12094,0.295717 1.9858525,3.862935 1.7219126 0 0 0.136148,0.269946 1.9858525,3.862935 1.7219126 0 0 0.01961,0.03146 z"
       id="path18513"
       inkscape:connector-curvature="0" />
    <path
       style="opacity:0.95;fill:#fbfbfb;fill-opacity:0.74719101;stroke:url(#linearGradient1162);stroke-width:0.22263372;stroke-linejoin:round;stroke-miterlimit:4;stroke-dasharray:none;stroke-dashoffset:0;stroke-opacity:1;paint-order:fill markers stroke"
       d="m 20.117469,22.184015 c -0.78157,-0.03637 -1.441839,0.838007 -1.48045,1.959971 l -0.152445,4.429803 c -0.03862,1.121956 0.559481,2.054432 1.341048,2.090802 l 0.550318,0.02562 a 1.9858525,3.862935 1.7219126 0 1 -0.0196,-0.03146 1.9858525,3.862935 1.7219126 0 1 -0.136147,-0.269946 1.9858525,3.862935 1.7219126 0 1 -0.12094,-0.295718 1.9858525,3.862935 1.7219126 0 1 -0.10454,-0.319186 1.9858525,3.862935 1.7219126 0 1 -0.08696,-0.339377 1.9858525,3.862935 1.7219126 0 1 -0.0689,-0.355888 1.9858525,3.862935 1.7219126 0 1 -0.04999,-0.369171 1.9858525,3.862935 1.7219126 0 1 -0.03056,-0.378779 1.9858525,3.862935 1.7219126 0 1 -0.01065,-0.384252 1.9858525,3.862935 1.7219126 0 1 0.0042,-0.272992 1.9858525,3.862935 1.7219126 0 1 0.02344,-0.384937 1.9858525,3.862935 1.7219126 0 1 0.04267,-0.380401 1.9858525,3.862935 1.7219126 0 1 0.06181,-0.371741 1.9858525,3.862935 1.7219126 0 1 0.08045,-0.358989 1.9858525,3.862935 1.7219126 0 1 0.09839,-0.343538 1.9858525,3.862935 1.7219126 0 1 0.114915,-0.32449 1.9858525,3.862935 1.7219126 0 1 0.130665,-0.301384 1.9858525,3.862935 1.7219126 0 1 0.144754,-0.276058 1.9858525,3.862935 1.7219126 0 1 0.157777,-0.247578 1.9858525,3.862935 1.7219126 0 1 0.169146,-0.21735 1.9858525,3.862935 1.7219126 0 1 0.178505,-0.184027 1.9858525,3.862935 1.7219126 0 1 0.186522,-0.148927 1.9858525,3.862935 1.7219126 0 1 0.192289,-0.113038 1.9858525,3.862935 1.7219126 0 1 0.196405,-0.07538 1.9858525,3.862935 1.7219126 0 1 0.198598,-0.03743 1.9858525,3.862935 1.7219126 0 1 0.14045,-0.0029 1.9858525,3.862935 1.7219126 0 1 0.197603,0.02844 1.9858525,3.862935 1.7219126 0 1 0.194064,0.06663 1.9858525,3.862935 1.7219126 0 1 0.188934,0.10473 1.9858525,3.862935 1.7219126 0 1 0.181641,0.140934 1.9858525,3.862935 1.7219126 0 1 0.17279,0.176162 1.9858525,3.862935 1.7219126 0 1 0.162097,0.209464 1.9858525,3.862935 1.7219126 0 1 0.149878,0.240881 1.9858525,3.862935 1.7219126 0 1 0.135829,0.269923 1.9858525,3.862935 1.7219126 0 1 0.120942,0.295723 1.9858525,3.862935 1.7219126 0 1 0.104536,0.319174 1.9858525,3.862935 1.7219126 0 1 0.08729,0.339396 1.9858525,3.862935 1.7219126 0 1 0.06889,0.356352 1.9858525,3.862935 1.7219126 0 1 0.05001,0.368716 1.9858525,3.862935 1.7219126 0 1 0.03024,0.378757 1.9858525,3.862935 1.7219126 0 1 0.01096,0.384265 1.9858525,3.862935 1.7219126 0 1 -0.0046,0.273437 1.9858525,3.862935 1.7219126 0 1 -0.02312,0.384958 1.9858525,3.862935 1.7219126 0 1 -0.04267,0.379945 1.9858525,3.862935 1.7219126 0 1 -0.06213,0.371719 1.9858525,3.862935 1.7219126 0 1 -0.08047,0.359452 1.9858525,3.862935 1.7219126 0 1 -0.09805,0.343099 1.9858525,3.862935 1.7219126 0 1 -0.114915,0.324496 1.9858525,3.862935 1.7219126 0 1 -0.130667,0.301376 1.9858525,3.862935 1.7219126 0 1 -0.144754,0.276043 1.9858525,3.862935 1.7219126 0 1 -0.132232,0.208106 l 0.461987,0.02149 c 0.78157,0.03637 1.441823,-0.837537 1.480434,-1.959501 L 24.985577,24.4396 c 0.03862,-1.121963 -0.55946,-2.054889 -1.341032,-2.091256 z"
       id="rect18506"
       inkscape:connector-curvature="0" />
    <ellipse
       transform="matrix(0.99891907,0.04648319,-0.03439315,0.99940838,0,0)"
       style="opacity:0.95999995;fill:#ffe8ff;fill-opacity:0.31460679;stroke:none;stroke-width:0.78783673;stroke-linejoin:round;stroke-miterlimit:4;stroke-dasharray:none;stroke-dashoffset:0;stroke-opacity:0.35955057;paint-order:fill markers stroke"
       id="path18515"
       cx="22.931936"
       cy="28.102861"
       rx="1.006649"
       ry="1.6092756" />
    <path
       style="fill:#ffffff;fill-opacity:1;stroke:none;stroke-width:0.0950072px;stroke-linecap:butt;stroke-linejoin:miter;stroke-opacity:1"
       d="m 22.157108,24.405367 c -0.03412,0.139142 -0.102389,0.417559 -0.05311,0.691483 0.04928,0.273923 0.215998,0.543029 0.394667,0.682099 0.17867,0.13907 0.369097,0.147933 0.474709,0.06232 0.105611,-0.08561 0.126487,-0.265737 0.08111,-0.438719 -0.04538,-0.172981 -0.15711,-0.339191 -0.312019,-0.527409 -0.154909,-0.188219 -0.35317,-0.398671 -0.452202,-0.503793 -0.09903,-0.105122 -0.09903,-0.105124 -0.133151,0.03402 z"
       id="path7327"
       inkscape:connector-curvature="0"
       inkscape:path-effect="#path-effect7329"
       inkscape:original-d="m 22.191227,24.266225 c -0.06818,0.278298 -0.136455,0.556714 -0.204806,0.835228 0.166961,0.269253 0.333683,0.538358 0.500396,0.807699 0.190519,0.0088 0.380948,0.01763 0.571295,0.02659 0.02094,-0.180077 0.04181,-0.360202 0.0626,-0.540142 -0.111499,-0.166105 -0.223234,-0.332312 -0.334979,-0.49831 -0.198083,-0.210459 -0.396344,-0.420911 -0.594507,-0.631063 z" />
    <path
       style="fill:#ffffff;fill-opacity:1;stroke:none;stroke-width:0.10982715px;stroke-linecap:butt;stroke-linejoin:miter;stroke-opacity:1"
       d="m 19.993518,26.966565 c -0.03575,0.186418 -0.107266,0.559406 -0.06114,0.924538 0.04613,0.365132 0.20981,0.722012 0.386963,0.905017 0.177153,0.183004 0.367568,0.191861 0.474219,0.07584 0.106651,-0.116025 0.12962,-0.356965 0.08621,-0.587353 -0.04341,-0.230388 -0.15327,-0.450674 -0.306081,-0.69969 -0.152812,-0.249017 -0.34873,-0.527053 -0.446579,-0.665914 -0.09785,-0.138862 -0.09785,-0.138853 -0.133597,0.04757 z"
       id="path7327-1"
       inkscape:connector-curvature="0"
       inkscape:path-effect="#path-effect7329-8"
       inkscape:original-d="m 20.029264,26.780146 c -0.07144,0.372847 -0.142953,0.745836 -0.214558,1.118949 0.163926,0.357083 0.327613,0.713961 0.49129,1.071169 0.190507,0.0087 0.380921,0.01758 0.571252,0.02657 0.02304,-0.240896 0.046,-0.481837 0.06888,-0.722537 -0.10963,-0.220147 -0.219498,-0.44043 -0.329375,-0.660433 -0.195743,-0.278058 -0.391665,-0.556091 -0.587487,-0.833727 z" />
    <path
       style="opacity:0.65100002;fill:#606060;fill-opacity:0.61797749;stroke:none;stroke-width:0.26458332px;stroke-linecap:butt;stroke-linejoin:miter;stroke-opacity:1;filter:url(#filter7409)"
       d="m 8.6783039,280.25224 c 0.6988903,0.0225 2.0964151,0.0676 3.2686811,0.0241 1.172266,-0.0436 2.1638,-0.1819 3.103949,-0.4073 0.940148,-0.2254 1.851715,-0.54106 2.210497,-0.37212 0.358783,0.16895 0.165462,0.82203 -0.561283,1.23956 -0.726745,0.41754 -1.984251,0.59769 -3.385543,0.66533 -1.401291,0.0677 -2.944002,0.0226 -3.8571431,-0.1916 -0.9131414,-0.21419 -1.1955569,-0.59728 -1.4780483,-0.98047 0,0 0,-2e-5 0.6988903,0.0225 z"
       id="path7397"
       inkscape:connector-curvature="0"
       inkscape:path-effect="#path-effect7399"
       inkscape:original-d="m 7.9794136,280.22969 c 1.39779,0.0448 2.7953144,0.0899 4.1925744,0.13525 0.946801,-0.13549 1.938766,-0.27076 2.907752,-0.40574 0.911286,-0.31575 1.822851,-0.63142 2.733874,-0.94671 -0.193257,0.65339 -0.386577,1.30647 -0.580495,1.96104 -1.259748,0.18024 -2.517255,0.36038 -3.77631,0.54098 -1.543489,-0.0453 -3.086198,-0.0904 -4.6299212,-0.13522 -0.2822911,-0.3835 -0.8474742,-1.14958 -0.8474742,-1.14958 z"
       transform="matrix(-0.55572715,-0.02585992,-0.01797297,0.52226475,33.301154,-115.58544)"
       sodipodi:nodetypes="ccccccccc" />
    <path
       style="opacity:0.95999995;fill:#7b4865;fill-opacity:0.74901961;stroke:#f2f2f2;stroke-width:0.35481504;stroke-linejoin:round;stroke-miterlimit:4;stroke-dasharray:4.25778082, 4.25778082;stroke-dashoffset:0;stroke-opacity:1;paint-order:fill markers stroke"
       d="m 33.58421,31.753933 a 1.9858526,3.862935 1.7219125 0 0 0.13223,-0.208113 1.9858526,3.862935 1.7219125 0 0 0.144754,-0.276051 1.9858526,3.862935 1.7219125 0 0 0.130668,-0.301375 1.9858526,3.862935 1.7219125 0 0 0.114914,-0.324497 1.9858526,3.862935 1.7219125 0 0 0.09805,-0.343091 1.9858526,3.862935 1.7219125 0 0 0.08048,-0.359459 1.9858526,3.862935 1.7219125 0 0 0.06213,-0.371716 1.9858526,3.862935 1.7219125 0 0 0.04267,-0.379941 1.9858526,3.862935 1.7219125 0 0 0.02312,-0.384959 1.9858526,3.862935 1.7219125 0 0 0.0046,-0.273435 1.9858526,3.862935 1.7219125 0 0 -0.01096,-0.384265 1.9858526,3.862935 1.7219125 0 0 -0.03024,-0.378758 1.9858526,3.862935 1.7219125 0 0 -0.05001,-0.368723 1.9858526,3.862935 1.7219125 0 0 -0.06889,-0.356346 1.9858526,3.862935 1.7219125 0 0 -0.08729,-0.339387 1.9858526,3.862935 1.7219125 0 0 -0.104534,-0.319189 1.9858526,3.862935 1.7219125 0 0 -0.120942,-0.295723 1.9858526,3.862935 1.7219125 0 0 -0.135829,-0.269925 1.9858526,3.862935 1.7219125 0 0 -0.149877,-0.240872 1.9858526,3.862935 1.7219125 0 0 -0.162097,-0.209464 1.9858526,3.862935 1.7219125 0 0 -0.172791,-0.176169 1.9858526,3.862935 1.7219125 0 0 -0.181641,-0.140936 1.9858526,3.862935 1.7219125 0 0 -0.188934,-0.10473 1.9858526,3.862935 1.7219125 0 0 -0.194062,-0.06662 1.9858526,3.862935 1.7219125 0 0 -0.197607,-0.02837 1.9858526,3.862935 1.7219125 0 0 -0.14045,0.0029 1.9858526,3.862935 1.7219125 0 0 -0.1986,0.03743 1.9858526,3.862935 1.7219125 0 0 -0.196401,0.07538 1.9858526,3.862935 1.7219125 0 0 -0.19229,0.113038 1.9858526,3.862935 1.7219125 0 0 -0.186525,0.148933 1.9858526,3.862935 1.7219125 0 0 -0.178503,0.184027 1.9858526,3.862935 1.7219125 0 0 -0.169146,0.217352 1.9858526,3.862935 1.7219125 0 0 -0.157777,0.247577 1.9858526,3.862935 1.7219125 0 0 -0.144754,0.276059 1.9858526,3.862935 1.7219125 0 0 -0.130665,0.301376 1.9858526,3.862935 1.7219125 0 0 -0.114915,0.324489 1.9858526,3.862935 1.7219125 0 0 -0.09838,0.343538 1.9858526,3.862935 1.7219125 0 0 -0.08047,0.358997 1.9858526,3.862935 1.7219125 0 0 -0.0618,0.371733 1.9858526,3.862935 1.7219125 0 0 -0.04268,0.380394 1.9858526,3.862935 1.7219125 0 0 -0.02343,0.384944 1.9858526,3.862935 1.7219125 0 0 -0.0042,0.272999 1.9858526,3.862935 1.7219125 0 0 0.01066,0.384243 1.9858526,3.862935 1.7219125 0 0 0.03057,0.378782 1.9858526,3.862935 1.7219125 0 0 0.04999,0.36917 1.9858526,3.862935 1.7219125 0 0 0.06889,0.355887 1.9858526,3.862935 1.7219125 0 0 0.08696,0.339384 1.9858526,3.862935 1.7219125 0 0 0.104539,0.319181 1.9858526,3.862935 1.7219125 0 0 0.120941,0.295723 1.9858526,3.862935 1.7219125 0 0 0.136147,0.269938 1.9858526,3.862935 1.7219125 0 0 0.01961,0.03146 z"
       id="path18513-2"
       inkscape:connector-curvature="0" />
    <path
       style="opacity:0.95999995;fill:#ffffff;fill-opacity:0.74719101;stroke:url(#linearGradient1170);stroke-width:0.22263372;stroke-linejoin:round;stroke-miterlimit:4;stroke-dasharray:none;stroke-dashoffset:0;stroke-opacity:1;paint-order:fill markers stroke"
       d="m 30.810869,23.130732 c -0.781568,-0.03637 -1.441838,0.837999 -1.480448,1.959964 l -0.152446,4.429803 c -0.0386,1.121955 0.559476,2.054433 1.341048,2.090801 l 0.550317,0.02562 a 1.9858526,3.862935 1.7219125 0 1 -0.0196,-0.03146 1.9858526,3.862935 1.7219125 0 1 -0.13615,-0.269939 1.9858526,3.862935 1.7219125 0 1 -0.120935,-0.295732 1.9858526,3.862935 1.7219125 0 1 -0.104538,-0.319173 1.9858526,3.862935 1.7219125 0 1 -0.08695,-0.339383 1.9858526,3.862935 1.7219125 0 1 -0.06889,-0.355883 1.9858526,3.862935 1.7219125 0 1 -0.04999,-0.369176 1.9858526,3.862935 1.7219125 0 1 -0.03057,-0.378781 1.9858526,3.862935 1.7219125 0 1 -0.01066,-0.384244 1.9858526,3.862935 1.7219125 0 1 0.0042,-0.272992 1.9858526,3.862935 1.7219125 0 1 0.02344,-0.384945 1.9858526,3.862935 1.7219125 0 1 0.04268,-0.3804 1.9858526,3.862935 1.7219125 0 1 0.0618,-0.37174 1.9858526,3.862935 1.7219125 0 1 0.08045,-0.358989 1.9858526,3.862935 1.7219125 0 1 0.09838,-0.343539 1.9858526,3.862935 1.7219125 0 1 0.114915,-0.324489 1.9858526,3.862935 1.7219125 0 1 0.130666,-0.301376 1.9858526,3.862935 1.7219125 0 1 0.144753,-0.276059 1.9858526,3.862935 1.7219125 0 1 0.157777,-0.247584 1.9858526,3.862935 1.7219125 0 1 0.169149,-0.217352 1.9858526,3.862935 1.7219125 0 1 0.1785,-0.184027 1.9858526,3.862935 1.7219125 0 1 0.186526,-0.148926 1.9858526,3.862935 1.7219125 0 1 0.192289,-0.11303 1.9858526,3.862935 1.7219125 0 1 0.196403,-0.07539 1.9858526,3.862935 1.7219125 0 1 0.198598,-0.03743 1.9858526,3.862935 1.7219125 0 1 0.140449,-0.0029 1.9858526,3.862935 1.7219125 0 1 0.197608,0.02837 1.9858526,3.862935 1.7219125 0 1 0.194063,0.06663 1.9858526,3.862935 1.7219125 0 1 0.188935,0.10474 1.9858526,3.862935 1.7219125 0 1 0.181639,0.140935 1.9858526,3.862935 1.7219125 0 1 0.172791,0.176154 1.9858526,3.862935 1.7219125 0 1 0.162096,0.209472 1.9858526,3.862935 1.7219125 0 1 0.149879,0.24088 1.9858526,3.862935 1.7219125 0 1 0.135829,0.269925 1.9858526,3.862935 1.7219125 0 1 0.12094,0.295715 1.9858526,3.862935 1.7219125 0 1 0.104539,0.319181 1.9858526,3.862935 1.7219125 0 1 0.08729,0.339388 1.9858526,3.862935 1.7219125 0 1 0.06889,0.356358 1.9858526,3.862935 1.7219125 0 1 0.05002,0.368714 1.9858526,3.862935 1.7219125 0 1 0.03024,0.378753 1.9858526,3.862935 1.7219125 0 1 0.01096,0.384271 1.9858526,3.862935 1.7219125 0 1 -0.0046,0.273436 1.9858526,3.862935 1.7219125 0 1 -0.02312,0.384958 1.9858526,3.862935 1.7219125 0 1 -0.04268,0.37994 1.9858526,3.862935 1.7219125 0 1 -0.06212,0.371725 1.9858526,3.862935 1.7219125 0 1 -0.08048,0.359451 1.9858526,3.862935 1.7219125 0 1 -0.09805,0.343098 1.9858526,3.862935 1.7219125 0 1 -0.114914,0.32449 1.9858526,3.862935 1.7219125 0 1 -0.130667,0.301375 1.9858526,3.862935 1.7219125 0 1 -0.144755,0.276052 1.9858526,3.862935 1.7219125 0 1 -0.132231,0.208106 l 0.461986,0.02149 c 0.78157,0.03637 1.441824,-0.837538 1.480435,-1.9595 l 0.152444,-4.429797 c 0.0386,-1.121971 -0.559463,-2.054896 -1.341032,-2.091265 z"
       id="rect18506-6"
       inkscape:connector-curvature="0" />
    <ellipse
       transform="matrix(0.99891907,0.04648319,-0.03439315,0.99940838,0,0)"
       style="opacity:0.95999995;fill:#ffe8ff;fill-opacity:0.31460679;stroke:none;stroke-width:0.78783673;stroke-linejoin:round;stroke-miterlimit:4;stroke-dasharray:none;stroke-dashoffset:0;stroke-opacity:0.35955057;paint-order:fill markers stroke"
       id="path18515-8"
       cx="32.881245"
       cy="28.55151"
       rx="1.006649"
       ry="1.6092756" />
    <path
       style="fill:#ffffff;fill-opacity:1;stroke:none;stroke-width:0.0950072px;stroke-linecap:butt;stroke-linejoin:miter;stroke-opacity:1"
       d="m 31.331553,26.310942 c 0.129375,0.04852 0.388346,0.14563 0.633954,0.07707 0.245608,-0.06856 0.47686,-0.302077 0.490539,-0.491914 0.01368,-0.189838 -0.190473,-0.335466 -0.375037,-0.38888 -0.184564,-0.05341 -0.349777,-0.01456 -0.493063,0.126657 -0.143285,0.141215 -0.264408,0.384645 -0.37097,0.65787 -0.106561,0.273224 -0.198367,0.575914 -0.198366,0.575913 0,0 0.09195,-0.303176 0.13776,-0.454204 0.04581,-0.151028 0.04581,-0.151026 0.175183,-0.102511 z"
       id="path7327-2"
       inkscape:connector-curvature="0"
       inkscape:path-effect="#path-effect7329-1"
       inkscape:original-d="m 31.202178,26.262427 c 0.25881,0.09687 0.517782,0.193983 0.776897,0.291335 0.232039,-0.234312 0.463294,-0.467826 0.69496,-0.701763 -0.204201,-0.145892 -0.408358,-0.291514 -0.612614,-0.436995 -0.164997,0.03871 -0.330209,0.07757 -0.495585,0.116552 -0.121121,0.24356 -0.242246,0.486989 -0.363659,0.730869 -0.09168,0.302568 -0.183481,0.605259 -0.275288,0.90764 0.09181,-0.302381 0.183761,-0.605558 0.275288,-0.90764 z"
       sodipodi:nodetypes="cccccccc" />
    <path
       style="fill:#ffffff;fill-opacity:1;stroke:none;stroke-width:0.10982715px;stroke-linecap:butt;stroke-linejoin:miter;stroke-opacity:1"
       d="m 34.056769,28.209856 c 0,0 0,0 -0.182497,0.08386 -0.182498,0.08386 -0.547049,0.251383 -0.733168,0.63118 -0.18612,0.379798 -0.19316,0.971523 -0.04212,1.183107 0.151044,0.211584 0.460178,0.0431 0.612544,-0.164081 0.152366,-0.20718 0.14813,-0.4534 0.179594,-0.748967 0.03146,-0.295568 0.09857,-0.640446 0.132106,-0.812774 0.03353,-0.172327 0.03354,-0.172327 0.03354,-0.172327 z"
       id="path7327-1-3"
       inkscape:connector-curvature="0"
       inkscape:path-effect="#path-effect7329-8-9"
       inkscape:original-d="m 34.056769,28.209856 c 0,0 1.31e-4,-1.24e-4 0,0 -0.365022,0.167665 -0.729575,0.335182 -1.094744,0.503062 -0.0069,0.59178 -0.01395,1.183505 -0.02112,1.775151 0.309099,-0.168531 0.618236,-0.337011 0.927225,-0.505356 -0.0041,-0.245971 -0.0084,-0.49219 -0.0127,-0.738187 0.06726,-0.345117 0.134372,-0.689995 0.201335,-1.03467 z"
       sodipodi:nodetypes="cccccccc" />
    <path
       style="opacity:0.622;fill:#030103;fill-opacity:0.57865164;stroke:none;stroke-width:0.22009009px;stroke-linecap:butt;stroke-linejoin:miter;stroke-opacity:1"
       d="M 33.63277,19.597712 C 33.362251,19.468475 32.821536,19.210156 32.2226,19.0681 c -0.598935,-0.142057 -1.255713,-0.167656 -1.720576,0.110706 -0.464862,0.278362 -0.73795,0.861162 -0.625905,1.234473 0.112044,0.373311 0.60916,0.537186 1.106292,0.701066 0,0 0,0 0,0 0.319935,-0.180886 0.640079,-0.36189 1.057878,-0.467711 0.417799,-0.105821 1.026382,-0.142244 1.574645,-0.06493 0.548263,0.07731 1.518011,0.336201 2.339838,0.555602 -0.683828,-0.47012 -1.367439,-0.94009 -1.709461,-1.175225 -0.342022,-0.235134 -0.342022,-0.235127 -0.612541,-0.364364 z"
       id="path7349-9"
       inkscape:connector-curvature="0"
       inkscape:path-effect="#path-effect7351-4"
       inkscape:original-d="m 33.903289,19.726949 c -0.540936,-0.258688 -1.081651,-0.517007 -1.622879,-0.775308 -0.656758,-0.02527 -1.313507,-0.05162 -1.970382,-0.0768 -0.272795,0.58236 -0.545884,1.16516 -0.819012,1.747864 0.497216,0.163676 1.491395,0.49164 1.491395,0.49164 v 0 c 0,0 0.640041,-0.361957 0.959804,-0.542658 0.515863,-0.03104 1.124446,-0.06746 1.547077,-0.09259 0.673962,0.179696 2.46548,0.658204 2.46548,0.658204 0,0 -1.367298,-0.940295 -2.051483,-1.410359 z"
       sodipodi:nodetypes="cccccccccc" />
    <path
       style="opacity:0.65100002;fill:#606060;fill-opacity:0.61797749;stroke:none;stroke-width:0.26458332px;stroke-linecap:butt;stroke-linejoin:miter;stroke-opacity:1;filter:url(#filter7409-9)"
       d="m 8.6783039,280.25224 c 0.6988903,0.0225 2.0964151,0.0676 3.2686811,0.0241 1.172266,-0.0436 2.1638,-0.1819 3.103949,-0.4073 0.940148,-0.2254 1.851715,-0.54106 2.210497,-0.37212 0.358783,0.16895 0.165462,0.82203 -0.561283,1.23956 -0.726745,0.41754 -1.984251,0.59769 -3.385543,0.66533 -1.401291,0.0677 -2.944002,0.0226 -3.8571431,-0.1916 -0.9131414,-0.21419 -1.1955569,-0.59728 -1.4780483,-0.98047 0,0 0,-2e-5 0.6988903,0.0225 z"
       id="path7397-5"
       inkscape:connector-curvature="0"
       inkscape:path-effect="#path-effect7399-1"
       inkscape:original-d="m 7.9794136,280.22969 c 1.39779,0.0448 2.7953144,0.0899 4.1925744,0.13525 0.946801,-0.13549 1.938766,-0.27076 2.907752,-0.40574 0.911286,-0.31575 1.822851,-0.63142 2.733874,-0.94671 -0.193257,0.65339 -0.386577,1.30647 -0.580495,1.96104 -1.259748,0.18024 -2.517255,0.36038 -3.77631,0.54098 -1.543489,-0.0453 -3.086198,-0.0904 -4.6299212,-0.13522 -0.2822911,-0.3835 -0.8474742,-1.14958 -0.8474742,-1.14958 z"
       transform="matrix(0.54943617,0.02556718,-0.01291203,0.37520214,29.34675,-74.055657)"
       sodipodi:nodetypes="ccccccccc" />
    <path
       style="opacity:0.86000001;fill:#0b0909;fill-opacity:0.61797749;stroke:none;stroke-width:0.04505101;stroke-linecap:butt;stroke-linejoin:miter;stroke-miterlimit:4;stroke-dasharray:none;stroke-opacity:1"
       d="m 26.272927,33.407273 c -0.07532,0.135515 -0.225995,0.406629 -0.227219,0.634613 -0.0012,0.227984 0.14704,0.412743 0.349856,0.569912 0.202817,0.157168 0.460239,0.286775 0.740264,0.312283 0.280025,0.02551 0.582923,-0.05297 0.80113,-0.169321 0.218208,-0.116355 0.351503,-0.270346 0.373503,-0.519331 0.022,-0.248984 -0.06728,-0.592603 -0.156604,-0.936365 0.01708,0.239901 0.03415,0.479752 0.02994,0.662624 -0.0042,0.182872 -0.02974,0.308802 -0.130019,0.432731 -0.100275,0.123929 -0.275453,0.246005 -0.486332,0.299724 -0.210879,0.05372 -0.457569,0.0391 -0.685788,-0.04077 -0.228219,-0.07987 -0.437856,-0.224969 -0.552126,-0.374586 -0.114269,-0.149617 -0.132978,-0.303517 -0.103522,-0.481848 0.02946,-0.178331 0.105945,-0.378029 0.146167,-0.483571 0.04022,-0.105543 0.04209,-0.111554 0.0315,-0.10117 -0.01059,0.01038 -0.03296,0.0349 -0.0442,0.04721 -0.01123,0.01231 -0.01124,0.01235 -0.08655,0.147861 z"
       id="path7572"
       inkscape:connector-curvature="0"
       inkscape:path-effect="#path-effect7574"
       inkscape:original-d="m 26.348243,33.271758 c -0.150589,0.271054 -0.301264,0.54217 -0.452034,0.813339 0.148358,0.184706 0.29662,0.369467 0.4448,0.554288 0.257415,0.129495 0.514838,0.2591 0.771971,0.388671 0.302862,-0.07851 0.605765,-0.156965 0.908682,-0.235418 0.133525,-0.154214 0.266819,-0.308207 0.400156,-0.462288 -0.08928,-0.343925 -0.267961,-1.031286 -0.267961,-1.031286 0,0 0.03424,0.479746 0.05123,0.719704 -0.02543,0.125807 -0.05096,0.251738 -0.07656,0.37761 -0.175024,0.121973 -0.350201,0.24405 -0.525346,0.366096 -0.246587,-0.0151 -0.493292,-0.02946 -0.740069,-0.04385 -0.209619,-0.145204 -0.419252,-0.290306 -0.629129,-0.435441 -0.01864,-0.154023 -0.03732,-0.307927 -0.05615,-0.461895 0.0777,-0.202654 0.154178,-0.402356 0.232795,-0.607784 0.0017,-0.0057 0.0047,-0.01136 0.0048,-0.01541 -0.02232,0.02451 -0.04471,0.04901 -0.06718,0.07363 z"
       sodipodi:nodetypes="ccccccccccccccccc" />
    <ellipse
       transform="matrix(0.99891907,0.04648319,-0.03439315,0.99940838,0,0)"
       style="opacity:0.37400004;fill:#ffffff;fill-opacity:0.28999999;stroke:none;stroke-width:0.66014355;stroke-linejoin:round;stroke-miterlimit:4;stroke-dasharray:none;stroke-dashoffset:0;stroke-opacity:1;paint-order:fill markers stroke"
       id="path7580"
       cx="34.208366"
       cy="32.378956"
       rx="2.020093"
       ry="1.1990403" />
    <ellipse
       transform="matrix(0.99891907,0.04648319,-0.03439315,0.99940838,0,0)"
       style="opacity:0.34200003;fill:#ffffff;fill-opacity:0.28651686;stroke:none;stroke-width:0.70353335;stroke-linejoin:round;stroke-miterlimit:4;stroke-dasharray:none;stroke-dashoffset:0;stroke-opacity:1;paint-order:fill markers stroke"
       id="path7580-5"
       cx="22.53768"
       cy="31.986958"
       rx="2.1594098"
       ry="1.2739804" />
    <ellipse
       transform="matrix(0.99891907,0.04648319,-0.03439315,0.99940838,0,0)"
       style="opacity:0.34200003;fill:#ba6d9a;fill-opacity:0.61797749;stroke:none;stroke-width:0.09298503;stroke-linejoin:round;stroke-miterlimit:4;stroke-dasharray:none;stroke-dashoffset:0;stroke-opacity:1;paint-order:fill markers stroke"
       id="path7580-5-6"
       cx="19.845522"
       cy="32.37204"
       rx="0.20140995"
       ry="0.2386018" />
    <ellipse
       transform="matrix(0.99891907,0.04648319,-0.03439315,0.99940838,0,0)"
       style="opacity:0.34200003;fill:#ba6d9a;fill-opacity:0.61797749;stroke:none;stroke-width:0.09298503;stroke-linejoin:round;stroke-miterlimit:4;stroke-dasharray:none;stroke-dashoffset:0;stroke-opacity:1;paint-order:fill markers stroke"
       id="path7580-5-6-8-7"
       cx="19.378302"
       cy="33.374542"
       rx="0.20140995"
       ry="0.2386018" />
    <ellipse
       transform="matrix(0.99891907,0.04648319,-0.03439315,0.99940838,0,0)"
       style="opacity:0.34200003;fill:#ba6d9a;fill-opacity:0.61797749;stroke:none;stroke-width:0.09298503;stroke-linejoin:round;stroke-miterlimit:4;stroke-dasharray:none;stroke-dashoffset:0;stroke-opacity:1;paint-order:fill markers stroke"
       id="path7580-5-6-87"
       cx="36.552746"
       cy="33.216576"
       rx="0.20140995"
       ry="0.2386018" />
    <ellipse
       transform="matrix(0.99891907,0.04648319,-0.03439315,0.99940838,0,0)"
       style="opacity:0.34200003;fill:#ba6d9a;fill-opacity:0.61797749;stroke:none;stroke-width:0.09298503;stroke-linejoin:round;stroke-miterlimit:4;stroke-dasharray:none;stroke-dashoffset:0;stroke-opacity:1;paint-order:fill markers stroke"
       id="path7580-5-6-8-8"
       cx="37.24966"
       cy="33.966324"
       rx="0.20140995"
       ry="0.2386018" />
    <path
       style="opacity:0.36000001;fill:#ffffff;fill-opacity:0.21910113;stroke:none;stroke-width:0.23766141px;stroke-linecap:butt;stroke-linejoin:miter;stroke-opacity:1"
       d="m 12.063869,27.748362 c 0.225037,-1.593369 0.494763,-1.842746 1.038122,-2.345023 0.543359,-0.502278 1.360197,-1.257315 3.194319,-2.136385 1.834123,-0.87907 4.685318,-1.882176 7.10074,-1.500955 2.415422,0.38122 4.395252,2.146636 5.913606,3.273057 1.518355,1.126421 2.574859,1.613619 3.584869,2.050161 1.010009,0.436542 1.972995,0.822206 2.71107,0.762077 0.738074,-0.06013 1.250903,-0.565932 1.878125,-1.164881 0.627223,-0.59895 1.370612,-1.292711 1.948408,-2.391652 0.577795,-1.09894 0.994888,-2.611595 1.280144,-3.644533 0.285255,-1.032939 0.439107,-1.587741 0.411364,0.200761 -0.02774,1.788502 -0.23701,5.920712 -0.389878,8.107686 -0.152869,2.186974 -0.249464,2.428868 -0.680634,2.878134 -0.431169,0.449265 -1.194458,1.103546 -2.129853,1.463644 -0.935394,0.360099 -2.040774,0.424587 -3.035644,0.193756 -0.994871,-0.23083 -1.877833,-0.756709 -3.49587,-1.708589 -1.618037,-0.95188 -3.96939,-2.328725 -5.800561,-3.10928 -1.831172,-0.780554 -3.141059,-0.964245 -4.558051,-0.664811 -1.416992,0.299434 -2.94033,1.081957 -4.412175,2.048954 -1.471845,0.966996 -2.890775,2.11751 -3.739874,3.008861 -0.849098,0.891351 -1.126692,1.522123 -1.175291,0.36842 -0.0486,-1.153703 0.132028,-4.096033 0.357064,-5.689402 z"
       id="path9677"
       inkscape:connector-curvature="0"
       inkscape:path-effect="#path-effect9679"
       inkscape:original-d="m 12.019153,26.404394 c 0.269733,-0.249423 0.539474,-0.498783 0.809197,-0.748147 0.816942,-0.755249 1.633821,-1.510241 2.450543,-2.265136 2.851503,-1.003331 5.702699,-2.006436 8.553694,-3.009355 1.980065,1.765261 3.959896,3.530676 5.939679,5.296413 1.056846,0.487089 2.113349,0.974289 3.169948,1.461793 0.963403,0.385591 1.926392,0.771247 2.889444,1.157185 0.513002,-0.505992 1.025824,-1.011801 1.538435,-1.517358 0.741834,-0.692343 1.485223,-1.386105 2.22521,-2.076659 0.415718,-1.507282 0.829446,-3.020865 1.24937,-4.531034 0.154239,-0.5547 0.307804,-1.109582 0.461446,-1.664004 -0.209072,4.131407 -0.418353,8.263616 -0.62777,12.396004 -0.09644,0.241561 -0.193036,0.483455 -0.289804,0.725725 -0.765613,0.656226 -1.5289,1.31051 -2.293801,1.966214 -1.105877,0.06435 -2.211257,0.128832 -3.317489,0.193543 -0.883376,-0.526405 -1.766338,-1.052284 -2.650027,-1.578317 -2.352376,-1.377746 -4.703729,-2.754591 -7.056154,-4.131762 -1.31002,-0.183925 -2.619907,-0.367615 -3.930365,-0.55117 -1.52359,0.782568 -3.046929,1.565089 -4.570895,2.34802 -1.419719,1.151094 -2.838642,2.301616 -4.259183,3.453484 -0.277567,0.630891 -0.555164,1.261662 -0.832793,1.892343 0.180516,-2.938106 0.361142,-5.880436 0.541315,-8.817782 z"
       sodipodi:nodetypes="cccccccccccccccccccccc" />
    <path
       style="opacity:0.622;fill:#000000;fill-opacity:0.57865164;stroke:none;stroke-width:0.22009009px;stroke-linecap:butt;stroke-linejoin:miter;stroke-opacity:1"
       d="m 20.213434,19.81856 c 0.617469,0.0699 1.852333,0.209699 2.685794,0.478426 0.833462,0.268726 1.265444,0.666276 1.699561,0.633135 0.434117,-0.03314 0.869634,-0.496487 0.872871,-0.907054 0.0032,-0.410568 -0.426498,-0.76804 -0.871253,-0.96786 -0.444755,-0.19982 -0.903529,-0.241741 -1.538038,-0.187843 -0.63451,0.0539 -1.444042,0.203681 -2.051107,0.36659 -0.607065,0.16291 -1.010939,0.338705 -1.213119,0.426709 -0.202181,0.088 -0.202178,0.08799 0.415291,0.157897 z"
       id="path7349-9-6"
       inkscape:connector-curvature="0"
       inkscape:path-effect="#path-effect7351-4-8"
       inkscape:original-d="m 19.595965,19.748657 c 1.234961,0.139602 2.469825,0.2794 3.704621,0.419394 0.432276,0.397474 0.864255,0.795028 1.296216,1.192897 0.436101,-0.463971 0.871834,-0.927114 1.30761,-1.39116 -0.429639,-0.357139 -0.859372,-0.714614 -1.289196,-1.072408 -0.459546,-0.04219 -0.918319,-0.08412 -1.377823,-0.1259 -0.80956,0.14964 -1.619093,0.299421 -2.428895,0.449402 -0.404168,0.176288 -0.808214,0.351687 -1.212536,0.527785 z"
       sodipodi:nodetypes="ccccccccc" />
  </g>
</svg>
