<?xml version="1.0" encoding="UTF-8" standalone="no"?>
<!-- Created with Inkscape (http://www.inkscape.org/) -->

<svg
   xmlns:dc="http://purl.org/dc/elements/1.1/"
   xmlns:cc="http://creativecommons.org/ns#"
   xmlns:rdf="http://www.w3.org/1999/02/22-rdf-syntax-ns#"
   xmlns:svg="http://www.w3.org/2000/svg"
   xmlns="http://www.w3.org/2000/svg"
   xmlns:sodipodi="http://sodipodi.sourceforge.net/DTD/sodipodi-0.dtd"
   xmlns:inkscape="http://www.inkscape.org/namespaces/inkscape"
   width="200"
   height="200"
   viewBox="0 0 52.916665 52.916668"
   version="1.1"
   id="svg1845"
   inkscape:version="0.92.3 (2405546, 2018-03-11)"
   sodipodi:docname="star.svg">
  <defs
     id="defs1839">
    <inkscape:path-effect
       effect="bspline"
       id="path-effect2611"
       is_visible="true"
       weight="33.333333"
       steps="2"
       helper_size="0"
       apply_no_weight="true"
       apply_with_weight="true"
       only_selected="false" />
    <inkscape:path-effect
       effect="bspline"
       id="path-effect2560"
       is_visible="true"
       weight="33.333333"
       steps="2"
       helper_size="0"
       apply_no_weight="true"
       apply_with_weight="true"
       only_selected="false" />
    <inkscape:path-effect
       effect="bspline"
       id="path-effect2556"
       is_visible="true"
       weight="33.333333"
       steps="2"
       helper_size="0"
       apply_no_weight="true"
       apply_with_weight="true"
       only_selected="false" />
    <inkscape:path-effect
       effect="bspline"
       id="path-effect2552"
       is_visible="true"
       weight="33.333333"
       steps="2"
       helper_size="0"
       apply_no_weight="true"
       apply_with_weight="true"
       only_selected="false" />
    <inkscape:path-effect
       effect="bspline"
       id="path-effect2548"
       is_visible="true"
       weight="33.333333"
       steps="2"
       helper_size="0"
       apply_no_weight="true"
       apply_with_weight="true"
       only_selected="false" />
    <inkscape:path-effect
       effect="bspline"
       id="path-effect2544"
       is_visible="true"
       weight="33.333333"
       steps="2"
       helper_size="0"
       apply_no_weight="true"
       apply_with_weight="true"
       only_selected="false" />
    <inkscape:path-effect
       effect="bspline"
       id="path-effect2520"
       is_visible="true"
       weight="33.333333"
       steps="2"
       helper_size="0"
       apply_no_weight="true"
       apply_with_weight="true"
       only_selected="false" />
    <inkscape:path-effect
       effect="bspline"
       id="path-effect2514"
       is_visible="true"
       weight="33.333333"
       steps="2"
       helper_size="0"
       apply_no_weight="true"
       apply_with_weight="true"
       only_selected="false" />
    <inkscape:path-effect
       effect="bspline"
       id="path-effect2510"
       is_visible="true"
       weight="33.333333"
       steps="2"
       helper_size="0"
       apply_no_weight="true"
       apply_with_weight="true"
       only_selected="false" />
    <inkscape:path-effect
       effect="bspline"
       id="path-effect2506"
       is_visible="true"
       weight="33.333333"
       steps="2"
       helper_size="0"
       apply_no_weight="true"
       apply_with_weight="true"
       only_selected="false" />
    <inkscape:path-effect
       effect="bspline"
       id="path-effect2501"
       is_visible="true"
       weight="33.333333"
       steps="2"
       helper_size="0"
       apply_no_weight="true"
       apply_with_weight="true"
       only_selected="false" />
    <inkscape:path-effect
       effect="bspline"
       id="path-effect2451"
       is_visible="true"
       weight="33.333333"
       steps="2"
       helper_size="0"
       apply_no_weight="true"
       apply_with_weight="true"
       only_selected="false" />
    <inkscape:path-effect
       effect="bspline"
       id="path-effect2520-0"
       is_visible="true"
       weight="33.333333"
       steps="2"
       helper_size="0"
       apply_no_weight="true"
       apply_with_weight="true"
       only_selected="false" />
  </defs>
  <sodipodi:namedview
     id="base"
     pagecolor="#ffffff"
     bordercolor="#666666"
     borderopacity="1.0"
     inkscape:pageopacity="0.0"
     inkscape:pageshadow="2"
     inkscape:zoom="1.83"
     inkscape:cx="100"
     inkscape:cy="100"
     inkscape:document-units="mm"
     inkscape:current-layer="layer1"
     showgrid="false"
     units="px"
     inkscape:window-width="899"
     inkscape:window-height="565"
     inkscape:window-x="415"
     inkscape:window-y="128"
     inkscape:window-maximized="0" />
  <metadata
     id="metadata1842">
    <rdf:RDF>
      <cc:Work
         rdf:about="">
        <dc:format>image/svg+xml</dc:format>
        <dc:type
           rdf:resource="http://purl.org/dc/dcmitype/StillImage" />
        <dc:title></dc:title>
      </cc:Work>
    </rdf:RDF>
  </metadata>
  <g
     inkscape:label="Layer 1"
     inkscape:groupmode="layer"
     id="layer1"
     transform="translate(0,-244.08332)">
    <ellipse
       style="opacity:1;fill:#63e7e7;fill-opacity:0.47752807;stroke:none;stroke-width:2.24765086;stroke-linejoin:round;stroke-miterlimit:4;stroke-dasharray:none;stroke-dashoffset:0;stroke-opacity:1;paint-order:fill markers stroke"
       id="path2540"
       cx="28.340376"
       cy="254.20544"
       rx="3.6921582"
       ry="3.2284791" />
    <path
       style="fill:#63e7e7;fill-opacity:0.47752807;stroke:none;stroke-width:0.29734546px;stroke-linecap:butt;stroke-linejoin:miter;stroke-opacity:1"
       d="m 20.240695,253.67318 c 0.515185,1.38364 1.030315,2.76713 2.175407,3.74094 1.145092,0.9738 2.919403,1.53744 4.779719,1.99862 1.860316,0.46118 3.806767,0.81994 5.026609,1.31847 1.219842,0.49853 1.756512,1.19251 2.014112,1.83297 0.2576,0.64047 0.2576,1.25566 0.2576,1.87061 -0.515184,-0.20499 -1.030197,-0.40991 -1.532717,-0.75598 -0.502519,-0.34607 -1.043192,-0.88388 -2.932024,-1.34507 -1.888831,-0.4612 -5.151539,-0.87114 -7.241191,-1.63991 -2.089651,-0.76876 -3.005475,-1.89609 -3.234409,-3.12607 -0.228933,-1.22997 0.228952,-2.56219 0.686894,-3.89458 z"
       id="path2542"
       inkscape:connector-curvature="0"
       inkscape:path-effect="#path-effect2544"
       inkscape:original-d="m 20.240695,253.67318 c 0,0 1.030684,2.76699 1.545554,4.15091 1.775057,0.56348 3.549366,1.12712 5.323577,1.6911 1.94637,0.35841 3.892822,0.71716 5.838763,1.07616 0.458199,0.66583 1.030685,1.33211 1.545553,1.99858 3.15e-4,0.61472 0,1.84486 0,1.84486 0,0 -1.030056,-0.41026 -1.545553,-0.61496 -0.515017,-0.46162 -1.030056,-1.0252 -1.545557,-1.53737 -3.262423,-0.41023 -6.52513,-0.82018 -9.788511,-1.22989 -0.915633,-1.12777 -1.83146,-2.2551 -2.747653,-3.38222 0.458195,-1.33249 1.373827,-3.99717 1.373827,-3.99717 z"
       sodipodi:nodetypes="ccccccccccc" />
    <path
       style="fill:#63e7e7;fill-opacity:0.47752807;stroke:none;stroke-width:0.29734546px;stroke-linecap:butt;stroke-linejoin:miter;stroke-opacity:1"
       d="m 18.235884,256.56068 c -1.087613,1.63986 -2.175,3.27938 -2.146383,4.84268 0.02862,1.5633 1.173239,3.04913 3.145162,3.67904 1.971923,0.62991 4.770248,0.40364 6.98506,0.64326 2.214811,0.23961 3.845948,0.94505 5.025163,2.01064 1.179216,1.0656 1.90685,2.49173 2.63441,3.91772 -1.454061,-1.32146 -2.907867,-2.6427 -5.171894,-3.31353 -2.264027,-0.67083 -5.336972,-0.69079 -8.134316,-0.95153 -2.797345,-0.26074 -5.428063,-0.78409 -6.887912,-2.06546 -1.459849,-1.28137 -1.803276,-3.33102 -0.858698,-4.91955 0.944578,-1.58853 3.176938,-2.71588 5.409406,-3.84328 0,0 2e-6,10e-6 2e-6,10e-6 z"
       id="path2546"
       inkscape:connector-curvature="0"
       inkscape:path-effect="#path-effect2548"
       inkscape:original-d="m 18.235884,256.56068 c 0,0 -2.17491,3.27944 -3.262838,4.91958 1.145401,1.48615 2.290025,2.97197 3.434566,4.45837 2.798955,-0.22656 5.59728,-0.45283 8.395631,-0.67886 1.63143,0.70518 3.262565,1.41062 4.893373,2.11629 0.727801,1.42568 2.18268,4.27796 2.18268,4.27796 0,0 -2.907618,-2.64297 -4.362182,-3.96439 -3.073737,-0.0202 -6.146682,-0.0402 -9.220492,-0.0599 -2.518636,-0.51279 -5.151534,-1.02519 -7.727773,-1.53737 -0.343173,-2.05029 -0.686598,-4.09994 -1.03037,-6.14948 2.232528,-1.12755 6.697403,-3.38221 6.697403,-3.38221 z"
       sodipodi:nodetypes="cccccccccccc" />
    <path
       style="fill:#63e7e7;fill-opacity:0.47752807;stroke:none;stroke-width:0.19344485px;stroke-linecap:butt;stroke-linejoin:miter;stroke-opacity:1"
       d="m 34.985939,265.37877 c 1.569589,0.18183 2.879063,0.69237 3.855721,1.73111 0.976658,1.03874 1.620832,2.60604 1.914668,3.64665 0.293836,1.0406 0.23739,1.55491 0.180955,2.06912 -1.169821,-1.7051 -2.33959,-3.41013 -4.20298,-4.6326 -1.863391,-1.22247 -4.420616,-1.96232 -6.977682,-2.70213 1.829733,-0.14698 3.659729,-0.29399 5.229318,-0.11215 z"
       id="path2550"
       inkscape:connector-curvature="0"
       inkscape:path-effect="#path-effect2552"
       inkscape:original-d="m 35.245819,265.04997 c 1.309845,0.51028 2.619322,1.02081 3.928438,1.53162 0.644269,1.56694 1.288451,3.13424 1.932331,4.70144 -0.05619,0.51413 -0.169305,1.54262 -0.169305,1.54262 0,0 -2.339414,-3.41025 -3.509464,-5.11531 -2.556806,-0.74011 -7.671198,-2.21942 -7.671198,-2.21942 0,0 3.659709,-0.29424 5.489198,-0.44095 z"
       sodipodi:nodetypes="ccccccc" />
    <path
       style="fill:#63e7e7;fill-opacity:0.47752807;stroke:none;stroke-width:0.29734546px;stroke-linecap:butt;stroke-linejoin:miter;stroke-opacity:1"
       d="m 11.380062,257.38028 c -0.655465,1.47855 -1.310792,2.95678 -1.7766266,4.26524 -0.4658346,1.30845 -0.7418601,2.44634 -0.3750426,3.571 0.3668175,1.12467 1.3760542,2.23502 3.3404762,2.9287 1.964422,0.69368 4.883777,0.9705 7.047494,1.06367 2.163717,0.0932 3.571502,0.003 4.979682,-0.0876 -2.450779,0.45508 -4.900103,0.9099 -6.815708,1.24817 -1.915605,0.33827 -3.293808,0.55934 -5.028271,0.41603 -1.734463,-0.14332 -3.8238897,-0.6511 -5.1826332,-1.6922 -1.3587434,-1.04109 -1.9859729,-2.61484 -2.1847552,-3.83757 -0.1987823,-1.22272 0.030908,-2.09402 0.5368541,-2.85169 0.5059464,-0.75767 1.2883745,-1.40214 2.2439526,-2.22035 0.9555781,-0.8182 2.0851477,-1.81085 3.2145777,-2.80338 z"
       id="path2554"
       inkscape:connector-curvature="0"
       inkscape:path-effect="#path-effect2556"
       inkscape:original-d="m 11.380062,257.38028 c 0,0 -1.310544,2.95689 -1.9663961,4.43564 -0.2757477,1.13813 -0.5517712,2.27602 -0.8282345,3.41432 1.0100841,1.11067 2.0193226,2.22102 3.0284076,3.33182 2.919473,0.27661 5.838828,0.55344 8.757666,0.83044 1.408564,-0.0906 4.22454,-0.27123 4.22454,-0.27123 0,0 -4.900125,0.90978 -7.352337,1.36525 -1.378996,0.22107 -2.757199,0.44214 -4.136374,0.66349 -2.089663,-0.50814 -4.1790902,-1.01592 -6.2692162,-1.52358 -0.627028,-1.57441 -1.25426,-3.14816 -1.881966,-4.72195 0.2300551,-0.87142 0.4597439,-1.74272 0.689039,-2.61378 0.7823424,-0.64429 1.564773,-1.28876 2.3465815,-1.93284 1.129355,-0.99233 3.3882897,-2.97758 3.3882897,-2.97758 z"
       sodipodi:nodetypes="ccccccccccccc" />
    <path
       style="fill:#63e7e7;fill-opacity:0.47752807;stroke:none;stroke-width:0.26458332px;stroke-linecap:butt;stroke-linejoin:miter;stroke-opacity:1"
       d="m 5.4803803,271.13307 c 0.7572729,0.58899 1.5145798,1.17801 2.7066185,1.68286 1.1920387,0.50484 2.8188532,0.92557 5.2027492,0.54692 2.383897,-0.37866 5.525534,-1.55677 8.01934,-2.17501 2.493805,-0.61824 4.455518,-0.68051 5.770924,-0.44959 1.315406,0.23092 2.042392,0.75315 2.773149,1.66679 0.730757,0.91365 1.465429,2.21891 2.200053,3.52409 0,0 0,0 0,0 -1.022206,-0.75398 -2.044362,-1.50792 -2.878601,-1.96675 -0.834239,-0.45883 -1.480632,-0.62252 -2.427974,-0.82051 -0.947341,-0.19799 -2.195633,-0.43026 -3.885788,-0.12567 -1.690156,0.30459 -3.821196,1.14579 -5.7145,1.91714 -1.893305,0.77134 -3.547841,1.47242 -4.936352,1.66881 -1.38851,0.19639 -2.5101797,-0.11207 -3.6042146,-1.10794 -1.0940349,-0.99586 -2.1596126,-2.67835 -3.2254041,-4.36118 0,0 0,4e-5 0,4e-5 z"
       id="path2558"
       inkscape:connector-curvature="0"
       inkscape:path-effect="#path-effect2560"
       inkscape:original-d="m 5.4803803,271.13307 c 0,0 1.5148104,1.17771 2.2718188,1.76697 1.6269195,0.42042 3.2537329,0.84115 4.8802019,1.26212 3.14119,-1.17811 6.282825,-2.35623 9.423841,-3.53394 1.846642,-0.0589 3.808356,-0.12114 5.712137,-0.18132 0.727252,0.52197 1.454238,1.0442 2.180962,1.56669 0.73489,1.30492 2.203873,3.91554 2.203873,3.91554 v 0 c 0,0 -2.044143,-1.50822 -3.066619,-2.26194 -0.646141,-0.16396 -1.292536,-0.32764 -1.939205,-0.49107 -1.248036,-0.23254 -2.496327,-0.46482 -3.744885,-0.69683 -2.131866,0.84136 -4.262902,1.68257 -6.394749,2.52424 -1.654765,0.70102 -3.309299,1.4021 -4.964345,2.10354 -1.121837,-0.30884 -2.2435067,-0.6173 -3.3656561,-0.92556 -1.0656966,-1.68336 -3.1973746,-5.04848 -3.1973746,-5.04848 z"
       sodipodi:nodetypes="cccccccccccccccc" />
    <rect
       style="opacity:1;fill:#63e7e7;fill-opacity:0.47752807;stroke:none;stroke-width:2;stroke-linejoin:round;stroke-miterlimit:4;stroke-dasharray:none;stroke-dashoffset:0;stroke-opacity:1;paint-order:fill markers stroke"
       id="rect2562"
       width="5.3494987"
       height="15.036429"
       x="-13.190328"
       y="276.42355"
       rx="2.6747494"
       ry="0"
       transform="rotate(-6.2206571)" />
    <rect
       style="opacity:1;fill:#63e7e7;fill-opacity:0.47752807;stroke:none;stroke-width:1.77730358;stroke-linejoin:round;stroke-miterlimit:4;stroke-dasharray:none;stroke-dashoffset:0;stroke-opacity:1;paint-order:fill markers stroke"
       id="rect2562-0"
       width="4.2334061"
       height="15.004825"
       x="25.300451"
       y="276.72073"
       rx="2.116703"
       ry="0"
       transform="matrix(0.99925792,-0.03851772,-0.00212173,0.99999775,0,0)"
       inkscape:transform-center-x="0.44414057"
       inkscape:transform-center-y="3.1458623" />
    <rect
       style="opacity:1;fill:#63e7e7;fill-opacity:0.47752807;stroke:none;stroke-width:1.69847846;stroke-linejoin:round;stroke-miterlimit:4;stroke-dasharray:none;stroke-dashoffset:0;stroke-opacity:1;paint-order:fill markers stroke"
       id="rect2562-0-5"
       width="4.2328858"
       height="13.705066"
       x="-46.221909"
       y="272.23398"
       rx="2.1164429"
       ry="0"
       transform="matrix(0.97085594,-0.23966381,0.20308135,0.97916187,0,0)"
       inkscape:transform-center-x="-0.15540379"
       inkscape:transform-center-y="2.9034116" />
    <rect
       style="opacity:1;fill:#63e7e7;fill-opacity:0.47752807;stroke:none;stroke-width:1.69847846;stroke-linejoin:round;stroke-miterlimit:4;stroke-dasharray:none;stroke-dashoffset:0;stroke-opacity:1;paint-order:fill markers stroke"
       id="rect2562-0-6"
       width="4.2328858"
       height="13.705066"
       x="80.287514"
       y="269.89435"
       rx="2.1164429"
       ry="0"
       transform="matrix(0.99023012,0.13944284,-0.17648522,0.98430329,0,0)"
       inkscape:transform-center-x="0.93789219"
       inkscape:transform-center-y="2.7521284" />
    <path
       style="fill:#63e7e7;fill-opacity:0.47752807;stroke:none;stroke-width:0.26458332px;stroke-linecap:butt;stroke-linejoin:miter;stroke-opacity:1"
       d="m 37.757061,271.47263 c 1.067209,0.85772 2.134447,1.71546 2.13038,2.80678 -0.0041,1.09133 -1.079503,2.41643 -2.279191,2.75751 -1.199689,0.34108 -2.522855,-0.30243 -3.84613,-0.94599 1.235259,-0.14381 2.470811,-0.28766 3.220364,-0.67648 0.749554,-0.38881 1.013559,-1.02234 1.061665,-1.72009 0.04811,-0.69775 -0.119469,-1.45964 -0.287088,-2.22173 z"
       id="path2609"
       inkscape:connector-curvature="0"
       inkscape:path-effect="#path-effect2611"
       inkscape:original-d="m 37.757061,271.47263 c 0,0 2.134682,1.71517 3.201628,2.57316 -1.075286,1.32497 -2.15072,2.65007 -3.226745,3.97583 -1.32323,-0.64393 -3.969824,-1.93069 -3.969824,-1.93069 0,0 2.470784,-0.28789 3.705778,-0.43144 0.264271,-0.6338 0.528277,-1.26733 0.792019,-1.9006 -0.167354,-0.76235 -0.502856,-2.28626 -0.502856,-2.28626 z"
       sodipodi:nodetypes="ccccccc" />
  </g>
</svg>
